<?xml version="1.0" encoding="UTF-8" standalone="no"?>
<svg
   xmlns:dc="http://purl.org/dc/elements/1.1/"
   xmlns:cc="http://creativecommons.org/ns#"
   xmlns:rdf="http://www.w3.org/1999/02/22-rdf-syntax-ns#"
   xmlns:svg="http://www.w3.org/2000/svg"
   xmlns="http://www.w3.org/2000/svg"
   xmlns:sodipodi="http://sodipodi.sourceforge.net/DTD/sodipodi-0.dtd"
   xmlns:inkscape="http://www.inkscape.org/namespaces/inkscape"
   width="250"
   height="250"
   version="1.1"
   id="svg3921"
   sodipodi:docname="logo_rec2.svg"
   inkscape:version="0.92.4 (5da689c313, 2019-01-14)">
  <metadata
     id="metadata3927">
    <rdf:RDF>
      <cc:Work
         rdf:about="">
        <dc:format>image/svg+xml</dc:format>
        <dc:type
           rdf:resource="http://purl.org/dc/dcmitype/StillImage" />
        <dc:title></dc:title>
      </cc:Work>
    </rdf:RDF>
  </metadata>
  <defs
     id="defs3925" />
  <sodipodi:namedview
     pagecolor="#ffffff"
     bordercolor="#666666"
     borderopacity="1"
     objecttolerance="10"
     gridtolerance="10"
     guidetolerance="10"
     inkscape:pageopacity="0"
     inkscape:pageshadow="2"
     inkscape:window-width="1366"
     inkscape:window-height="745"
     id="namedview3923"
     showgrid="false"
     inkscape:snap-bbox="true"
     inkscape:snap-global="true"
     inkscape:pagecheckerboard="true"
     inkscape:zoom="2.3047849"
     inkscape:cx="124.80264"
     inkscape:cy="125.03842"
     inkscape:window-x="-8"
     inkscape:window-y="-8"
     inkscape:window-maximized="1"
     inkscape:current-layer="svg3921" />
  <path
     style="fill:#fdfcfb; stroke:none;"
     d="M5 23C0.322376 28.3221 0 32.0875 0 39C0 43.1139 -0.76551 48.1618 0.988426 52C7.18267 65.5549 28.1107 73.2975 42 70C40.5266 74.7916 38.4831 78.8087 39.189 84C39.8035 88.5185 42.9003 91.9062 44.6381 96C48.7857 105.77 51.8092 115.4 52.8009 126C53.7381 136.017 46.3911 145.318 45.1852 155C43.3435 169.787 46.2576 181.828 56.2863 192.985C59.544 196.61 64.1044 201.479 69 202.683C76.3684 204.495 83.9027 201.469 91 200C91 206.301 89.907 211.831 89 218C86.4767 217.592 83.6126 216.909 81.4491 218.757C78.8528 220.974 80.1937 224.115 80.115 227C79.9481 233.117 77.5084 238.582 82.3943 243.772C86.2263 247.842 103.652 251.648 105.522 243.895C107.153 237.133 99.5841 236.416 95.0046 235.945C92.8755 235.726 89.5463 235.011 90.0602 232.093C90.487 229.67 93.0709 229.497 95.0154 229.724C99.5163 230.248 106.293 232.813 110.505 229.972C115.734 226.446 117.846 217.316 120.681 212C123.61 206.506 128.647 202.353 133 198L133 212C128.959 213.342 127.986 217.988 133.059 218.852C140.317 220.089 148.638 219 156 219L218 219L236 219C238.35 218.999 241.502 219.473 243.681 218.397C248.343 216.094 243.976 212.497 241 212L241 118C241 109.351 240.705 100.643 241.019 92C241.126 89.0409 243.112 84.9259 241.843 82.1474C240.164 78.4682 233.368 77.7492 230 76.2299C218.443 71.0167 204.707 62.1164 192 61C192.91 66.5943 197.245 67.7574 202 69.8603C209.869 73.3404 217.716 77.6317 226 80C217.72 82.4475 207.607 81 199 81L145 81C151.58 77.1558 158.333 73.5597 165 69.8611C169.754 67.2238 174.081 65.8163 175 60C163.739 61.1535 151.794 70.7096 142 76.1389C139.067 77.7648 132.753 79.5324 131.863 83.213C131.231 85.8248 132.883 89.2861 132.981 92C133.235 98.9815 133 106.014 133 113C133 118.221 133.895 122.997 129 126C127.397 123.166 125.785 121.689 123 120C126.231 115.994 127.688 111.949 128.985 107C130.737 100.318 131.407 89.5831 129.03 83C126.343 75.5567 119.455 70.0044 113.282 65.537C108.845 62.3266 104.983 58.4303 100 55.9961C91.7197 51.9513 80.093 49.5406 71 48C70.6609 43.7097 70.2953 38.7625 67.9907 35.0154C63.9276 28.4092 51.0771 22.0444 44 19.0856C40.9881 17.8264 37.1329 18.7361 34.3935 16.9722C27.8585 12.7644 27.1816 1.58333 17.9992 0.148148C14.3673 -0.41951 6.7195 -1.11525 3.55787 1.02779C-3.28817 5.6682 -0.20883 18.7647 5 23z"
     id="path3827" />
  <path
     style="fill:#ff8080;stroke:none"
     d="M28 23.9884C17.1684 26.8743 20.1888 39.5376 19.9853 48C19.9085 51.1936 18.7922 54.9151 20.3573 57.892C24.0257 64.8698 38.4253 65.2491 45 63.3619C50.1071 61.896 61.4407 56.8049 63.8025 51.7901C65.4252 48.3447 63.5548 41.0286 61.4113 38.108C59.1127 34.9763 55.2292 33.7967 52 31.9105C44.7376 27.6685 37.1033 21.563 28 23.9884z"
     id="path3831" />
  <path
     style="fill:#fdfcfb; stroke:none;"
     d="M36 31C37.278 38.4292 46.9789 37.1966 46 46L47 47L49 47C54.7039 36.8043 45.3571 32.4015 36 31z"
     id="path3833" />
  <path
     style="fill:#010101; stroke:none;"
     d="M14 53C14 48.8144 16.1838 35.635 11.6829 33.466C7.21804 31.3145 4.90288 37.7097 5.12809 41C5.48163 46.1652 9.66603 50.6848 14 53M63 61C66.6163 61.5219 70.3453 60.2908 74 60C70.9154 56.1035 66.5694 58.9368 63 61M98 222L105 223C111.196 207.971 119.687 194.76 133 185C132.888 177.898 135.945 179.385 140.975 176.556C143.961 174.876 146.259 172.035 149 170C142.012 161.236 126.482 153.643 115 154.019C111.32 154.14 108.493 155.781 105 156.586C100.136 157.706 93.9958 157.783 89 158.196C81.5423 158.812 74.5485 153.274 74 146C78.2966 145.82 81.8326 147.284 86 148C88.5824 144.807 91.7038 142.445 95 140C90.4124 132.726 82.6431 129.461 77.4298 122.91C73.1613 117.547 72.5563 110.023 69.7006 104C64.7133 93.4815 54.3291 87.1336 56.2176 74C56.7266 70.4602 58.7934 67.3217 60 64C51.6975 66.6227 46.8573 69.7264 48.304 79C49.7639 88.3579 56.1182 97.168 59.341 106C61.4638 111.817 62.2248 119.842 62.8009 126C63.6374 134.941 58.2181 144.689 55.5941 153C52.0476 164.233 54.0753 176.017 61.7585 184.961C64.123 187.713 66.8469 190.579 70.0008 192.436C75.3705 195.597 88.5379 192.915 92.2616 187.856C95.9307 182.87 96.7214 176.234 100.749 171.004C102.994 168.089 111.195 159.264 115.149 164.477C118.473 168.859 108.005 175.644 105.853 179.004C100.094 187.998 101.827 197.995 100.896 208C100.456 212.725 98.6122 217.264 98 222z"
     id="path3835" />
  <path
     style="fill:#c39b69; stroke:none;"
     d="M185 182C179.111 182 172.621 182.757 167 180.671C163.414 179.34 159.709 174.871 155.91 174.733C152.49 174.609 149.298 177.961 147 180.09C144.288 182.603 140.917 185.438 139.603 189C137.131 195.706 139 205.89 139 213L235 213L235 86L139 86L139 121C139 125.704 137.795 132.414 139.603 136.829C141.377 141.158 147.688 145.051 152 146.351C155.463 147.395 159.665 147.273 163 145.879C167.555 143.974 173.91 138.97 178.851 142.607C184.677 146.896 179.911 154.742 174 155C175.228 151.989 176.429 149.208 177 146C170.055 146.379 165.203 151.79 158 150.789C151.049 149.823 145.525 145.2 140 141.296C129.099 133.593 119.761 125.331 111 115.129C105.98 109.283 102.36 106.003 101 98L106 99C105.857 87.4478 103.112 73.4734 91.9846 66.9383C85.4471 63.0987 79.6443 65.0465 73 66.625C68.5588 67.6801 64.4529 67.6979 63.3449 73.0185C60.9056 84.7325 70.6056 91.7098 75.3164 101C78.3919 107.065 78.8926 114.443 83.4182 119.829C86.3573 123.328 90.481 125.696 93.9066 128.665C102.363 135.994 110.934 143.366 121 148.752C128.63 152.833 137.539 154.813 144.961 159.136C147.795 160.786 149.63 163.523 152.09 165.622C155.811 168.797 160.318 171.354 164.285 174.243C170.44 178.725 181.383 175.44 185 182z"
     id="path3837" />
  <path
     style="fill:#fdfcfb; stroke:none;"
     d="M170 99.5579C160.959 101.934 158.732 111.784 168.015 115.772C171.752 117.377 176.029 117 180 117C188.046 117.001 198.274 118.667 205.999 116.246C215.639 113.225 216.916 103.845 206.999 100.109C202.597 98.4499 197.621 99 193 99C185.75 99 177.048 97.7052 170 99.5579z"
     id="path3841" />
  <path
     style="fill:#c39b69; stroke:none;"
     d="M172 102C175.699 103.552 180.017 103 184 103L204 103C200.301 101.448 195.983 102 192 102L172 102z"
     id="path3843" />
  <path
     style="fill:#7c5c37; stroke:none;"
     d="M169.059 103.742C164.051 105.842 165.241 111.2 170.019 112.566C177.965 114.839 188.757 113.003 197 113C200.454 112.999 204.732 113.493 207.851 111.682C213.546 108.376 208.326 103.792 203.999 103.189C196.569 102.153 188.497 103 181 103C177.288 103 172.56 102.274 169.059 103.742z"
     id="path3845" />
  <path
     style="fill:#c39b69; stroke:none;"
     d="M206 103L207 104L206 103M206 112L207 113L206 112M172 113C175.699 114.552 180.017 114 184 114L204 114C200.301 112.448 195.983 113 192 113L172 113z"
     id="path3847" />
  <path
     style="fill:#010101; stroke:none;"
     d="M216 131L217 132L216 131M218 131L219 132L218 131M211 133L212 134L211 133M97 148L107 148C103.421 144.263 100.404 143.967 97 148z"
     id="path3917" />
  <path
     style="fill:#fdfcfb; stroke:none;"
     d="M198 151C197.196 161.571 186.744 159.021 179 159L179 162C184.992 162.124 197.227 165.287 200.397 157.868C201.281 155.799 200.992 153.193 201 151L198 151M178 167C180.895 170.313 192.405 170.564 195 167C189.297 167.001 183.677 167.6 178 167M176 172C179.812 177.4 192.779 178.031 195 171C187.801 173.551 183.433 172.592 176 172M144 239C137.183 240.934 127.672 241.564 125 249C132.11 251.102 143.661 251.145 149.786 246.298C158.498 239.403 151.488 227.776 143 224.92C135.024 222.236 125.126 224.611 119.105 230.301C116.558 232.708 112.463 237.962 115.758 241.392C119.031 244.801 123.255 240.359 125.576 238.17C131.51 232.569 139.629 231.035 144 239z"
     id="path3919" />
  <text
     xml:space="preserve"
     style="font-style:normal;font-weight:normal;font-size:10.66666698px;line-height:1.25;font-family:sans-serif;letter-spacing:0px;word-spacing:0px;fill:#000000;fill-opacity:1;stroke:none"
     x="142.74304"
     y="134.08575"
     id="text3997"><tspan
       sodipodi:role="line"
       id="tspan3995"
       x="142.74304"
       y="134.08575"
       style="font-style:normal;font-variant:normal;font-weight:bold;font-stretch:normal;font-size:10.66666698px;font-family:Dubai;-inkscape-font-specification:'Dubai Bold'">www.hasserisflyt.dk</tspan></text>
</svg>
