<?xml version="1.0" encoding="UTF-8" standalone="no"?>
<!-- Created with Inkscape (http://www.inkscape.org/) -->

<svg
   xmlns:dc="http://purl.org/dc/elements/1.1/"
   xmlns:cc="http://creativecommons.org/ns#"
   xmlns:rdf="http://www.w3.org/1999/02/22-rdf-syntax-ns#"
   xmlns:svg="http://www.w3.org/2000/svg"
   xmlns="http://www.w3.org/2000/svg"
   xmlns:sodipodi="http://sodipodi.sourceforge.net/DTD/sodipodi-0.dtd"
   xmlns:inkscape="http://www.inkscape.org/namespaces/inkscape"
   width="250mm"
   height="250mm"
   viewBox="0 0 250 250"
   version="1.1"
   id="svg4027"
   inkscape:version="0.92.4 (5da689c313, 2019-01-14)"
   sodipodi:docname="drawing.svg">
  <defs
     id="defs4021" />
  <sodipodi:namedview
     id="base"
     pagecolor="#ffffff"
     bordercolor="#666666"
     borderopacity="1.0"
     inkscape:pageopacity="0.0"
     inkscape:pageshadow="2"
     inkscape:zoom="0.44363914"
     inkscape:cx="462.94141"
     inkscape:cy="498.03995"
     inkscape:document-units="mm"
     inkscape:current-layer="layer1"
     showgrid="false"
     inkscape:window-width="1366"
     inkscape:window-height="745"
     inkscape:window-x="-8"
     inkscape:window-y="-8"
     inkscape:window-maximized="1"
     inkscape:pagecheckerboard="true"
     inkscape:object-paths="true"
     inkscape:snap-smooth-nodes="true"
     inkscape:object-nodes="false"
     inkscape:snap-intersection-paths="true"
     inkscape:snap-nodes="true"
     inkscape:snap-bbox="false"
     inkscape:snap-global="false" />
  <metadata
     id="metadata4024">
    <rdf:RDF>
      <cc:Work
         rdf:about="">
        <dc:format>image/svg+xml</dc:format>
        <dc:type
           rdf:resource="http://purl.org/dc/dcmitype/StillImage" />
        <dc:title></dc:title>
      </cc:Work>
    </rdf:RDF>
  </metadata>
  <g
     inkscape:groupmode="layer"
     id="layer6"
     inkscape:label="Layer 4">
    <path
       style="display:inline;fill:#ffffff;fill-opacity:1;stroke-width:0.26458332"
       id="path4360"
       d="m 134.32748,80.154289 37.30987,-20.45962 c -4.35395,5.296422 -2.34457,7.033279 -2.34457,7.033279 l -22.74722,13.416145 84.55317,-0.0704 -36.89942,-12.443187 c 1.52944,-0.869695 -2.5015,-5.410596 -0.95676,-4.843284 l 47.04885,17.278837 0.20447,129.026571 c 0.0818,2.42515 2.00758,3.4415 4.24945,4.01001 -4.6974,0.12653 -3.22503,0.14814 -3.55517,2.44003 0.25223,1.01414 -5.772,0.3611 -6.72545,0.24225 l -0.10283,-130.606525 -96.02228,0.184788 99.37668,127.211907 0.56629,3.49688 -101.05693,0.0485 -3.96225,0.35277 -0.14462,-23.23189 36.4237,-33.97544 -35.35633,-27.6967 0.14135,-51.414935 z"
       inkscape:connector-curvature="0"
       sodipodi:nodetypes="ccccccscccccccccccccccc" />
  </g>
  <g
     inkscape:label="Layer 1"
     inkscape:groupmode="layer"
     id="layer1"
     transform="translate(0,-47)"
     style="display:inline">
    <path
       inkscape:connector-curvature="0"
       style="fill:#c39b69;stroke:none;stroke-width:1.00850213"
       d="m 184.12573,228.98913 c -5.91317,0 -12.42979,0.76677 -18.07384,-1.34617 -3.60073,-1.3482 -7.32093,-5.87493 -11.1355,-6.01471 -3.43402,-0.12556 -6.63911,3.26969 -8.94657,5.4262 -2.72313,2.54548 -6.10795,5.4171 -7.42733,9.02514 -2.48215,6.79263 -0.60547,17.10822 -0.60547,24.31011 h 96.39385 v -128.641 h -96.39385 v 35.45224 c 0,4.76479 -1.20995,11.56148 0.60547,16.03355 1.78128,4.38492 8.11818,8.32821 12.44786,9.64502 3.4772,1.05749 7.69644,0.93392 11.04514,-0.47809 4.57366,-1.92961 10.95474,-6.99829 15.91603,-3.31429 5.84989,4.34443 1.06432,12.2918 -4.87094,12.55313 1.23305,-3.04991 2.439,-5.86682 3.01232,-9.1163 -6.97348,0.38392 -11.8454,5.86482 -19.07794,4.85088 -6.97953,-0.97844 -12.52619,-5.66119 -18.07384,-9.61566 -10.94572,-7.80251 -20.32202,-16.17127 -29.11898,-26.50509 -5.04061,-5.92153 -8.67546,-9.24393 -10.041017,-17.35034 l 5.020517,1.01295 c -0.14345,-11.70147 -2.89986,-25.85647 -14.07289,-32.47597 -6.56434,-3.88923 -12.39093,-1.91624 -19.062491,-0.31738 -4.459429,1.06873 -8.582163,1.08676 -9.694708,6.4761 -2.449311,11.86537 7.290482,18.93283 12.020608,28.34306 3.088104,6.14337 3.590861,13.61668 8.135041,19.07229 2.951161,3.54419 7.091777,5.94281 10.531402,8.95018 8.491128,7.4237 17.097268,14.89096 27.204568,20.34653 7.66132,4.13375 16.60685,6.13933 24.05931,10.51816 2.84563,1.67135 4.68816,4.4437 7.15822,6.56982 3.7363,3.21601 8.26174,5.80605 12.24505,8.73238 6.18026,4.53993 17.16812,1.21248 20.79998,7.85726 z"
       id="path3837" />
    <path
       inkscape:connector-curvature="0"
       style="fill:#ff8080;stroke:none;stroke-width:0.9614504"
       d="m 27.757017,72.800699 c -11.006585,2.625276 -7.937392,14.144959 -8.14418,21.843141 -0.07804,2.905177 -1.212374,6.2906 0.378029,8.99863 3.727666,6.34764 18.359897,6.6927 25.040813,4.97594 5.189609,-1.33351 16.706305,-5.96484 19.106261,-10.526776 1.648915,-3.13423 -0.251711,-9.789627 -2.429832,-12.446468 -2.335733,-2.84888 -6.281972,-3.921949 -9.563342,-5.637807 -7.379727,-3.858909 -15.13736,-9.413022 -24.387729,-7.20666 z"
       id="path3831" />
    <path
       inkscape:connector-curvature="0"
       style="fill:#fdfcfb;stroke:none;stroke-width:0.99698418"
       d="m 35.679557,79.052879 c 1.313058,7.187293 14.858442,4.503844 12.361703,11.827801 l -0.761744,1.862027 2.353059,0.596393 C 55.492949,83.475394 45.29335,80.408745 35.679557,79.052879 Z"
       id="path3833"
       sodipodi:nodetypes="ccccc" />
    <path
       style="fill:#ffffff;fill-opacity:1;stroke-width:0.26458332"
       id="path4336"
       d="m 91.815662,236.04009 c -0.668069,0.46916 -11.899027,7.26508 -21.435944,3.5076 -10.383586,-4.09107 -16.082255,-28.269 -16.0019,-27.38268 0.149699,-0.65927 -0.327041,-2.68135 0.789978,-8.90646 7.530096,-20.65722 8.341952,-23.25646 8.063042,-31.04602 -1.026252,-6.09039 -0.901005,-12.18077 -3.214507,-18.27115 -2.928951,-7.21264 -8.74923,-22.62549 -11.273879,-28.11155 -2.665193,-5.79146 5.705352,-13.98315 11.373314,-14.2485 2.493775,-0.11675 0.870333,-2.71849 -2.15562,-2.79559 -2.981592,-0.076 -12.092101,-0.45242 -12.111208,-0.37587 -0.06644,0.2662 -13.419029,0.78477 -13.419029,0.78477 -1.166708,0.0843 -8.858028,-4.44089 -12.743641,-6.2946 C 18.176829,102.17993 17.507795,102.68922 9.3273577,96.823106 7.6157673,95.595741 1.718039,82.969792 10.24147,80.931988 c 6.844298,-1.636352 1.393841,14.945764 3.54863,21.799532 0.901189,2.86642 5.557776,0.79791 5.708844,-0.0104 1.637776,-8.762956 -4.222847,-25.426813 7.19311,-29.524648 0.0292,-0.01048 5.479678,-0.110456 5.893155,-1.138354 0.410318,-1.020048 -1.052486,-1.879508 -2.02971,-2.376177 -2.917272,-1.48269 -13.024914,4.091593 -15.846397,7.383077 C 9.7901308,82.803387 4.3470169,66.14707 4.3310463,63.414999 c -0.02397,-4.100432 2.0555185,-7.321273 7.5060017,-7.102964 4.877178,0.195347 15.302137,16.986218 20.96381,15.936931 4.230504,-0.784046 26.289866,11.762244 27.884597,13.405866 2.234837,2.303352 1.73945,10.394268 2.266217,13.321374 0.481864,2.677594 -16.106516,9.720504 -18.271679,9.787454 -2.836603,0.0877 9.527562,0.35272 9.619177,0.51012 0.733285,1.25938 12.760977,-3.69451 12.975125,-10.330699 12.932446,6.246359 60.322935,11.539459 48.071405,68.385359 l 2.92997,2.34435 c -0.7685,-12.11454 8.21664,-22.95226 -6.02432,-48.63361 C 99.772815,103.55441 69.311525,95.202515 67.469423,96.314167 c 0,0 -0.893575,-13.773689 -5.34081,-14.818694 C 53.487958,79.465104 41.401682,73.133212 36.400431,69.820828 29.83726,65.473968 23.777414,59.58614 22.95149,58.816697 18.081475,54.279724 11.23983,50.578556 4.4188396,54.915739 c -5.6553024,3.59597 -2.164805,22.586924 -2.2527297,22.568492 -3.7898859,-0.7945 -1.0627608,15.581424 0.1451697,19.704188 1.4693855,5.015131 27.3841144,15.601711 27.4140154,15.955631 0.166385,1.96946 18.106148,-4.09897 17.925949,1.40635 -0.119695,3.65686 -2.414429,9.7079 -2.397674,10.62767 5.022877,15.17987 13.544821,32.32553 13.662921,45.64773 0.453586,14.39766 -9.15158,31.32833 -9.240059,41.49321 0.490609,6.49489 5.067736,19.99396 13.882207,30.59534 11.707171,1.61149 19.999191,0.55236 28.744641,1.22121 1.123455,0.0859 0.83908,23.45603 0.83908,23.45603 0,0 -8.455654,-1.14627 -9.053873,0.91163 -0.513297,1.76576 4.110122,4.1074 4.110122,4.1074 -1.751834,6.18344 -6.784591,16.55238 0.226035,20.12087 8.382132,4.2666 21.940946,4.36932 20.905666,-3.4391 0,0 -0.72897,-3.23793 -3.2084,-4.80594 -1.01177,-0.63985 -5.36301,-0.87051 -5.99197,-0.89529 -3.784985,-0.1491 -7.176603,-1.18695 -7.289553,-2.55547 -0.141918,-1.7195 1.955508,-4.21988 1.955508,-4.21988 3.238682,0.24168 5.488505,0.39217 8.294155,-0.8309 2.67111,-0.21518 6.04709,-0.74488 8.32325,-2.57718 12.7598,-28.73954 17.37515,-23.08621 27.12919,-37.32809 0.63905,-0.93308 11.88232,-16.15077 16.44845,-13.7804 0,0 6.15998,3.94089 11.06095,5.34377 8.30946,2.37854 19.36375,2.04179 19.62357,1.66394 -0.44492,0.11166 -3.02526,-4.45666 -7.08575,-4.27208 -2.33409,0.1061 -8.59796,-1.73163 -14.68132,-3.66731 -1.10078,-0.35026 -18.92131,-15.19211 -19.98591,-15.53784 -0.39867,-0.12947 -10.30195,-5.93256 -14.85322,-7.02135 -6.79366,-1.62522 -9.17462,2.10887 -10.65285,1.68404 -0.90399,-0.2598 -7.61683,1.46555 -14.93098,2.89931 -8.846592,-0.50266 -14.649592,-1.43434 -14.542343,-2.77838 -0.375751,-4.47439 13.432363,-13.69483 11.564513,-14.64035 -0.0539,-0.0273 21.87765,14.54253 22.44626,15.26786 2.20763,2.81608 6.88367,-1.20358 6.57446,-1.24644 -3.43909,-0.47673 -24.09361,-14.54719 -28.75913,-18.77533 -3.862456,-3.50037 -18.551621,-14.49391 -19.965156,-16.88042 -2.126238,-3.58979 -3.923504,-12.0843 -7.191442,-18.8742 -2.575004,-5.35018 -6.965003,-9.642 -6.965003,-9.642 -0.2619,-0.365 -3.219475,-19.68211 -1.791197,-21.72798 1.310447,-1.87709 17.289462,-4.17358 21.861691,-3.30355 1.383452,0.26325 12.697149,0.58191 18.261907,33.59327 0.6099,0.58476 -0.74953,-1.4666 -2.05258,-1.72721 -0.71187,-0.14237 -1.83237,1.23017 -3.112926,1.28269 0,0 -2.439073,4.80229 12.785886,20.10138 3.84532,4.96013 13.50457,14.41921 18.52157,17.85605 1.05813,0.72486 12.816,11.05904 19.96991,13.81344 -0.39815,-0.32506 1.10611,0.7439 5.5148,1.63538 3.65528,0.73914 11.12196,-1.67954 16.02031,-4.14337 0.19952,-0.10036 2.98816,-1.24859 3.37762,-0.41044 0,0 -3.32235,8.90873 -2.75958,8.88952 0.9395,-0.0321 5.20441,-0.79742 6.21101,-3.50224 1.60067,-4.30116 1.55185,-5.26455 0.092,-7.40067 -2.06901,-3.02743 -5.44147,-3.36889 -7.49491,-2.75783 -6.13454,1.82551 -9.64573,5.6144 -14.94365,5.39546 -5.36834,-0.22185 -19.68797,-10.43319 -19.09884,-12.57917 0.30552,-1.11288 -29.55168,-20.27449 -29.96816,-30.64136 0,0 -0.29898,-5.3455 -0.38128,-5.76184 -2.4069,-12.17538 -7.22887,-32.85001 -12.704172,-33.25597 -1.871946,-0.13879 -9.296408,-3.3615 -16.407807,-3.15379 -1.34396,0.0392 -1.360534,1.03972 -3.751282,2.91934 -1.247783,0.98101 -5.248484,1.28151 -5.44754,1.15026 -1.094327,-0.72153 -9.111033,-1.12908 -10.194923,0.65763 -5.288822,8.71822 -4.127743,11.70158 -2.677164,15.34387 2.359621,5.92482 0.456977,2.18658 4.228379,10.21143 8.264657,9.42361 10.492257,23.14862 15.988879,29.83437 7.674125,9.09389 19.371816,17.95279 18.631466,18.48411 -4.165721,2.98955 -8.720407,8.49511 -8.838807,8.4503 -1.405376,-0.53187 -12.66349,-2.55554 -12.66349,-2.55554 0,0 1.968175,9.64826 8.783147,11.61736 8.200286,2.36937 18.760814,1.83343 27.282894,1.13831 9.17219,-0.74815 18.77115,-1.78218 19.26117,-1.7793 2.58849,0.0152 18.87779,9.99422 18.19064,13.02501 -0.40837,1.80121 -4.19296,6.82478 -5.48695,7.14631 -11.97012,2.97438 -5.764,6.01513 -8.64314,8.89427 -3.78857,3.78857 -11.11587,9.80786 -13.16486,12.23551 -6.85031,8.94195 -10.09057,16.62733 -14.96168,24.88037 l -6.03211,-0.75355 c 0.06211,-4.02362 1.21448,-7.95926 2.77875,-11.86166 0.009,-4.72671 -0.10322,-8.81507 0.19592,-15.08314 1.63573,-9.85575 2.78577,-12.38943 5.36124,-16.41466 4.75779,-4.10899 8.92865,-10.01115 8.92865,-10.01115 0.55918,-0.13857 0.91018,-3.37658 -0.94722,-4.84824 -3.41831,-7.62265 -22.252812,14.97494 -19.662724,17.7655 z"
       inkscape:connector-curvature="0"
       sodipodi:nodetypes="csccccsssssssssssssssssssssccccsssssssssccccscssscssscccssscsssssccssssssssscsscscsssssssssssssssssccsscsssssscccccccccc" />
    <g
       inkscape:groupmode="layer"
       id="layer5"
       inkscape:label="test_layer"
       style="display:none">
      <path
         transform="translate(0,-1.25e-6)"
         inkscape:connector-curvature="0"
         style="display:inline;fill:#010101;stroke:none;stroke-width:1.01112843"
         d="m 13.652218,99.988274 c 0,-4.192304 2.229108,-17.392796 -2.365173,-19.565267 -4.5574912,-2.154937 -6.9206855,4.250486 -6.6908026,7.546054 0.3608722,5.17344 4.6320894,9.700309 9.0559756,12.019213 m 50.016622,8.012806 c 3.691326,0.52272 7.497696,-0.71036 11.228217,-1.00163 -3.148594,-3.90273 -7.584765,-1.06488 -11.228217,1.00163 m 35.72616,161.25761 7.14523,1.00159 c 6.32455,-15.05303 14.99171,-28.28517 28.5809,-38.06077 -0.11423,-7.11337 3.00612,-5.62401 8.1405,-8.45752 3.04793,-1.68268 5.3936,-4.52826 8.19149,-6.56649 -7.13299,-8.77804 -22.9852,-16.38319 -34.70542,-16.00659 -3.75634,0.12121 -6.642,1.76484 -10.20747,2.57112 -4.96493,1.12178 -11.232508,1.1989 -16.331969,1.61258 -7.612419,0.61696 -14.751323,-4.92987 -15.311204,-12.21551 4.385745,-0.18016 7.995109,1.28602 12.248963,2.00316 2.635982,-3.19809 5.822146,-5.56388 9.186739,-8.01277 -4.682784,-7.28563 -12.613278,-10.55586 -17.934742,-17.11736 -4.35706,-5.37157 -4.974613,-12.90762 -7.889558,-18.94025 -5.090775,-10.53533 -15.690418,-16.8934 -13.762735,-30.04801 0.51956,-3.54546 2.629237,-6.689 3.860874,-10.016 -8.474755,2.6269 -13.415378,5.73558 -11.938662,15.02401 1.490189,9.37288 7.976323,18.19709 11.265987,27.04322 2.166845,5.82629 2.943634,13.86413 3.531684,20.03197 0.853856,8.95532 -4.677878,18.71893 -7.356321,27.0432 -3.62008,11.25101 -1.550309,23.05387 6.292296,32.01215 2.413556,2.75641 5.193969,5.62701 8.413306,7.48697 5.481105,3.16606 18.921686,0.47974 22.722649,-4.58732 3.74523,-4.99401 4.552333,-11.6406 8.663493,-16.87897 2.29158,-2.91967 10.66272,-11.75879 14.69876,-6.53746 3.39297,4.38903 -7.29222,11.1849 -9.48887,14.55026 -5.87848,9.0084 -4.10952,19.0214 -5.05983,29.04237 -0.44914,4.73258 -2.33119,9.27883 -2.95609,14.02242 z"
         id="path3835" />
    </g>
    <text
       xml:space="preserve"
       style="font-style:normal;font-variant:normal;font-weight:bold;font-stretch:normal;font-size:9.87777805px;line-height:1.25;font-family:Corbel;-inkscape-font-specification:'Corbel Bold';letter-spacing:0px;word-spacing:0px;fill:#000000;fill-opacity:1;stroke:none;stroke-width:0.26458332"
       x="144.64778"
       y="178.92018"
       id="text4366"><tspan
         sodipodi:role="line"
         id="tspan4364"
         x="144.64778"
         y="178.92018"
         style="font-style:normal;font-variant:normal;font-weight:bold;font-stretch:normal;font-size:9.87777805px;font-family:Corbel;-inkscape-font-specification:'Corbel Bold';stroke-width:0.26458332">www.hasserisflyt.dk</tspan></text>
  </g>
  <g
     inkscape:groupmode="layer"
     id="layer2"
     inkscape:label="Layer 2"
     style="display:inline">
    <path
       inkscape:connector-curvature="0"
       style="display:inline;fill:#fdfcfb;stroke:none;stroke-width:1.00572431"
       d="m 202.10264,198.64882 c -0.82375,10.43624 -11.53224,7.91878 -19.46631,7.89803 v 2.96176 c 6.13908,0.12239 18.67431,3.24512 21.92211,-4.07934 0.90569,-2.04261 0.60962,-4.61538 0.61783,-6.78045 h -3.07363 m -20.49084,15.79606 c 2.96605,3.27076 14.75851,3.51855 17.41722,0 -5.84297,9.7e-4 -11.6009,0.59236 -17.41722,0 m -2.0491,4.93624 c 3.90555,5.33117 17.19081,5.95415 19.46632,-0.98724 -7.3757,2.51848 -11.85089,1.57172 -19.46632,0.98724 m -32.7853,66.14596 c -6.98432,1.90933 -16.72873,2.53131 -19.46632,9.87251 7.2845,2.07523 19.11897,2.11765 25.39428,-2.66754 8.92581,-6.80714 1.7438,-18.28592 -6.95253,-21.10552 -8.17172,-2.64978 -18.31265,-0.30485 -24.48143,5.31244 -2.60949,2.37631 -6.80499,7.56333 -3.42913,10.9496 3.35332,3.36557 7.68098,-1.01981 10.05895,-3.18093 6.07964,-5.5296 14.39788,-7.04404 18.87618,0.81944 z"
       id="path3919"
       transform="translate(0,-47.000001)" />
    <rect
       style="fill:#ffffff;fill-opacity:1;stroke-width:0.28727096"
       id="rect4285"
       width="51.038074"
       height="17.733566"
       x="160.03459"
       y="100.34602"
       ry="7.0000815"
       rx="15.594954" />
  </g>
  <g
     inkscape:groupmode="layer"
     id="layer4"
     inkscape:label="Layer 3"
     style="display:inline">
    <rect
       style="fill:#784421;fill-opacity:1;stroke-width:0.29041791"
       id="rect4289"
       width="43.252586"
       height="10.380616"
       x="163.4948"
       y="103.80621"
       rx="16.675695"
       ry="1.7300996" />
  </g>
</svg>
