<svg id="svg" xmlns="http://www.w3.org/2000/svg" xmlns:xlink="http://www.w3.org/1999/xlink" width="400" height="423.5294117647059" viewBox="0, 0, 400,423.5294117647059" version="1.1"><g id="svgg"><path id="path0" d="M18.112 6.292 C 12.750 6.777,9.707 15.984,12.754 22.502 C 13.419 23.924,14.269 26.308,14.645 27.801 C 15.056 29.438,15.756 31.009,16.408 31.758 C 18.019 33.609,18.574 34.946,19.790 39.905 C 20.878 44.344,20.930 44.449,23.387 47.093 L 25.879 49.776 28.396 47.498 C 29.781 46.246,31.516 44.327,32.251 43.235 C 33.508 41.369,38.135 37.600,39.169 37.600 C 42.093 37.600,42.471 28.114,39.668 25.050 C 39.240 24.583,38.489 23.390,37.998 22.400 C 37.507 21.410,36.210 19.700,35.115 18.600 C 34.021 17.500,31.700 15.118,29.957 13.307 C 28.215 11.497,26.207 9.717,25.495 9.353 C 24.783 8.989,23.524 8.086,22.699 7.345 C 21.873 6.605,20.883 6.031,20.499 6.070 C 20.114 6.108,19.040 6.208,18.112 6.292 M18.800 53.200 C 18.250 53.376,16.345 53.538,14.567 53.560 L 11.334 53.600 9.967 55.276 C 7.091 58.801,7.205 58.366,7.204 65.800 L 7.203 72.600 8.752 74.930 C 9.604 76.212,11.205 78.102,12.309 79.130 C 13.985 80.690,14.436 81.426,15.031 83.570 C 16.026 87.155,20.301 92.200,22.047 91.851 C 25.981 91.064,27.001 88.960,26.650 82.357 C 26.517 79.851,26.293 73.491,26.153 68.224 L 25.898 58.647 24.449 56.747 C 23.652 55.702,22.677 54.387,22.281 53.824 C 21.543 52.772,20.641 52.610,18.800 53.200 M112.200 93.429 C 110.660 94.188,109.130 95.206,108.800 95.692 C 106.704 98.777,101.330 103.450,99.085 104.139 C 97.812 104.530,96.192 105.346,95.485 105.952 C 94.778 106.558,93.480 107.476,92.600 107.994 C 91.720 108.511,90.242 109.780,89.315 110.815 C 87.865 112.432,87.256 112.789,84.959 113.366 C 81.424 114.254,80.517 114.764,78.344 117.088 L 76.512 119.046 76.221 126.471 C 75.843 136.096,76.565 141.631,78.604 144.754 C 79.124 145.549,80.111 147.627,80.798 149.371 C 81.486 151.115,82.496 153.074,83.043 153.724 C 83.590 154.375,84.415 155.646,84.877 156.550 C 85.338 157.454,86.563 159.005,87.600 159.997 L 89.485 161.800 90.130 166.752 C 90.712 171.226,90.909 171.902,92.174 173.752 C 93.674 175.946,94.671 179.136,95.066 183.000 C 95.316 185.440,95.700 186.389,97.370 188.689 C 99.173 191.174,99.400 193.966,99.395 213.600 C 99.389 234.488,99.304 235.261,96.545 239.462 C 95.013 241.794,94.799 242.393,94.793 244.359 C 94.783 247.840,93.583 251.919,91.943 254.053 C 90.643 255.744,90.499 256.199,90.289 259.253 C 89.999 263.499,89.098 266.433,87.540 268.207 C 85.886 270.091,85.620 271.552,85.613 278.800 C 85.603 288.390,86.191 293.851,87.404 295.440 C 87.946 296.152,88.925 298.384,89.579 300.401 C 90.406 302.951,91.188 304.532,92.148 305.596 C 93.017 306.557,93.869 308.177,94.443 309.960 C 95.039 311.811,95.954 313.525,97.078 314.895 C 98.025 316.050,98.800 317.155,98.800 317.350 C 98.800 317.825,110.697 329.600,111.177 329.600 C 111.383 329.600,112.392 330.328,113.420 331.217 L 115.288 332.834 119.144 332.581 C 123.626 332.287,125.709 331.832,126.401 330.998 C 127.276 329.944,132.047 328.774,138.000 328.154 C 141.190 327.821,144.087 327.336,144.439 327.075 C 149.931 322.993,149.596 323.393,150.811 319.460 C 151.244 318.058,151.933 316.481,152.342 315.955 C 153.738 314.165,154.289 312.602,154.514 309.800 C 154.853 305.580,155.771 303.306,158.040 301.064 C 159.118 300.000,160.000 298.975,160.000 298.788 C 160.000 298.600,160.855 297.466,161.900 296.268 C 162.945 295.070,164.117 293.184,164.505 292.076 C 165.679 288.727,171.391 283.126,175.000 281.787 C 176.540 281.216,178.464 280.220,179.277 279.574 C 181.645 277.690,183.530 278.607,185.181 282.445 C 186.229 284.881,186.066 285.168,182.542 287.089 C 179.276 288.870,175.509 293.240,174.429 296.502 C 173.936 297.988,172.948 299.905,172.232 300.762 C 171.516 301.619,170.740 302.833,170.508 303.460 C 170.276 304.087,169.783 305.452,169.413 306.493 C 169.042 307.535,168.044 309.228,167.195 310.256 C 165.853 311.879,165.618 312.470,165.405 314.762 C 164.976 319.364,164.031 322.995,162.727 325.046 L 161.485 327.000 161.143 339.994 C 160.724 355.933,160.263 358.935,157.725 362.263 C 156.274 364.165,155.303 372.791,156.277 375.123 C 157.774 378.706,164.892 381.663,168.008 379.996 C 170.898 378.449,173.072 375.472,173.960 371.846 C 174.547 369.452,175.642 367.247,176.738 366.255 C 177.191 365.846,177.951 364.199,178.427 362.596 C 179.029 360.569,179.809 359.052,180.988 357.615 C 182.096 356.264,182.913 354.722,183.345 353.166 C 183.848 351.359,184.513 350.227,186.104 348.471 C 188.682 345.626,190.554 343.060,192.451 339.772 C 195.327 334.789,203.908 325.884,207.683 323.966 C 213.493 321.013,216.198 316.887,217.392 309.155 C 217.758 306.791,220.831 305.104,225.704 304.591 C 227.847 304.365,228.719 304.058,229.904 303.113 C 230.727 302.457,232.030 301.594,232.800 301.194 C 235.552 299.766,239.461 295.596,241.172 292.262 L 242.782 289.124 241.837 287.862 C 241.317 287.168,240.528 285.880,240.084 285.000 C 238.935 282.723,234.124 277.823,232.012 276.778 C 231.029 276.292,229.769 275.567,229.212 275.168 C 228.656 274.769,227.030 274.241,225.600 273.995 C 220.334 273.091,218.247 272.385,216.800 271.018 C 215.043 269.357,214.388 269.026,211.254 268.214 C 209.863 267.854,207.797 266.955,206.663 266.218 C 205.266 265.309,203.747 264.734,201.958 264.437 C 198.376 263.840,195.072 262.658,192.849 261.175 L 191.000 259.942 186.044 260.222 C 181.468 260.481,180.938 260.596,179.137 261.715 C 176.734 263.210,173.050 263.963,168.000 263.994 C 158.204 264.053,152.635 264.687,150.547 265.982 C 146.491 268.495,141.396 268.507,136.649 266.013 C 135.082 265.190,132.540 264.136,131.000 263.672 C 129.460 263.207,127.746 262.402,127.192 261.883 C 126.638 261.363,125.386 260.360,124.409 259.653 C 120.961 257.155,120.773 255.661,123.456 252.105 L 124.433 250.810 126.409 251.843 C 129.712 253.570,137.723 254.209,139.600 252.895 C 141.887 251.293,151.958 241.450,153.859 238.958 L 154.934 237.548 154.041 235.709 C 153.550 234.698,152.551 233.135,151.822 232.235 C 151.093 231.336,150.133 229.880,149.690 229.000 C 149.246 228.120,148.369 226.836,147.741 226.147 C 147.114 225.457,146.028 224.180,145.328 223.307 C 144.239 221.948,143.698 221.645,141.547 221.189 C 139.419 220.737,138.683 220.331,136.722 218.528 C 135.449 217.358,134.253 216.400,134.066 216.400 C 133.878 216.400,132.719 215.545,131.490 214.500 C 130.261 213.455,128.791 212.275,128.224 211.878 C 127.656 211.481,126.753 210.292,126.218 209.235 C 125.682 208.178,124.762 206.741,124.173 206.041 C 123.584 205.341,122.566 203.380,121.912 201.684 C 121.257 199.988,120.279 198.014,119.738 197.297 C 118.284 195.370,117.171 191.811,116.910 188.251 C 116.705 185.455,116.524 184.900,115.294 183.289 C 114.533 182.291,113.498 180.266,112.996 178.787 C 111.914 175.608,111.439 174.669,109.968 172.800 C 109.361 172.030,108.517 170.249,108.092 168.842 C 107.251 166.056,105.222 163.183,101.662 159.736 C 100.010 158.136,99.301 157.049,98.540 154.953 C 97.945 153.315,96.949 151.583,96.023 150.579 C 93.639 147.992,93.038 145.377,92.169 133.800 C 91.917 130.434,91.980 129.973,93.136 126.706 C 95.845 119.055,98.081 116.764,103.382 116.210 C 105.672 115.970,106.451 115.690,107.782 114.626 C 108.672 113.916,110.072 112.931,110.893 112.439 C 111.714 111.946,112.746 111.037,113.187 110.419 C 113.627 109.800,114.845 108.891,115.894 108.399 C 116.942 107.907,118.610 106.837,119.600 106.022 C 120.590 105.208,122.525 103.866,123.900 103.041 C 127.031 101.164,127.030 101.161,122.198 95.930 C 121.415 95.083,115.692 91.920,115.131 92.025 C 115.059 92.038,113.740 92.670,112.200 93.429 M169.330 118.984 C 166.498 120.216,165.578 123.959,167.555 126.210 C 168.245 126.996,169.339 128.805,169.985 130.231 C 170.632 131.657,171.546 133.313,172.017 133.912 C 173.021 135.188,173.780 136.891,174.821 140.200 C 175.236 141.520,176.216 143.590,177.000 144.800 C 179.760 149.064,180.403 153.299,179.884 163.800 C 179.042 180.847,179.678 184.268,184.848 190.495 C 186.976 193.058,191.496 190.121,193.172 185.085 C 193.642 183.673,194.285 182.176,194.600 181.758 C 194.916 181.341,195.187 180.280,195.202 179.400 C 195.217 178.520,195.490 176.540,195.808 175.000 C 197.485 166.881,196.810 149.801,194.687 146.685 C 194.120 145.852,193.168 143.692,192.571 141.885 C 191.805 139.564,191.034 138.104,189.943 136.909 C 189.094 135.979,188.400 135.026,188.400 134.791 C 188.400 134.556,187.275 133.217,185.900 131.816 C 184.525 130.415,182.230 127.985,180.800 126.416 C 177.675 122.987,177.217 122.542,174.424 120.214 C 172.112 118.287,171.354 118.103,169.330 118.984 " stroke="none" fill="#0950ad" fill-rule="evenodd"></path><path id="path1" d="M14.598 7.300 C 13.776 8.235,12.608 9.545,12.003 10.211 C 9.851 12.580,9.575 19.416,11.520 22.182 C 12.774 23.966,13.147 24.864,14.352 29.010 C 14.912 30.939,15.552 32.188,16.394 32.994 C 17.708 34.253,18.334 35.966,19.408 41.249 C 19.979 44.056,20.327 44.860,21.554 46.200 C 22.359 47.080,23.531 48.475,24.157 49.300 C 25.799 51.464,26.435 51.032,34.493 42.276 C 35.872 40.778,37.837 39.119,38.861 38.589 C 42.877 36.511,43.743 28.988,40.442 24.847 C 39.983 24.271,39.129 22.990,38.544 22.000 C 37.958 21.010,36.593 19.300,35.511 18.200 C 34.428 17.100,32.027 14.630,30.176 12.711 C 28.325 10.791,26.133 8.874,25.305 8.450 C 24.477 8.025,23.364 7.210,22.830 6.639 C 21.960 5.706,21.566 5.600,18.977 5.600 L 16.093 5.600 14.598 7.300 M22.699 7.345 C 23.524 8.086,24.783 8.989,25.495 9.353 C 26.207 9.717,28.215 11.497,29.957 13.307 C 31.700 15.118,34.021 17.500,35.115 18.600 C 36.210 19.700,37.507 21.410,37.998 22.400 C 38.489 23.390,39.240 24.583,39.668 25.050 C 42.471 28.114,42.093 37.600,39.169 37.600 C 38.135 37.600,33.508 41.369,32.251 43.235 C 31.516 44.327,29.781 46.246,28.396 47.498 L 25.879 49.776 23.387 47.093 C 20.930 44.449,20.878 44.344,19.790 39.905 C 18.574 34.946,18.019 33.609,16.408 31.758 C 15.756 31.009,15.056 29.438,14.645 27.801 C 14.269 26.308,13.419 23.924,12.754 22.502 C 9.707 15.984,12.750 6.777,18.112 6.292 C 19.040 6.208,20.114 6.108,20.499 6.070 C 20.883 6.031,21.873 6.605,22.699 7.345 M52.000 44.356 C 42.874 44.784,39.594 46.771,37.795 52.957 C 37.379 54.387,36.579 55.885,35.726 56.829 L 34.336 58.368 34.481 69.884 C 34.619 80.823,34.673 81.520,35.562 83.800 C 36.077 85.120,36.677 87.100,36.896 88.200 C 37.114 89.300,37.647 91.444,38.078 92.965 C 38.510 94.486,38.994 96.956,39.154 98.454 C 39.523 101.913,38.847 101.552,46.881 102.583 C 53.053 103.375,54.044 103.609,56.062 104.752 L 58.325 106.034 65.862 105.898 C 71.968 105.788,73.780 105.622,75.400 105.023 C 76.500 104.616,79.110 103.671,81.200 102.923 C 83.290 102.176,85.656 101.111,86.458 100.557 C 87.259 100.003,88.796 99.318,89.873 99.034 C 92.217 98.415,94.211 97.189,97.302 94.466 C 98.567 93.351,99.870 92.288,100.197 92.106 C 101.345 91.463,101.559 77.834,100.440 76.643 C 99.953 76.124,98.928 74.016,98.163 71.957 C 97.397 69.898,96.348 67.761,95.830 67.207 C 95.312 66.653,94.508 65.441,94.043 64.513 C 93.077 62.586,92.404 62.133,89.950 61.758 C 88.988 61.611,87.898 61.336,87.529 61.146 C 86.950 60.850,86.822 61.119,86.601 63.101 C 85.358 74.258,84.502 75.759,79.095 76.264 C 75.412 76.608,70.241 73.597,72.129 72.207 C 74.899 70.166,73.985 66.691,70.497 66.002 C 67.598 65.430,64.438 64.456,63.400 63.816 C 62.960 63.545,61.610 62.998,60.400 62.600 C 57.548 61.663,56.573 61.006,56.072 59.681 C 52.793 51.005,53.693 50.411,69.557 50.783 C 74.277 50.894,75.119 49.661,71.227 48.338 C 70.057 47.940,68.897 47.456,68.650 47.263 C 68.402 47.069,67.306 46.794,66.213 46.651 C 65.121 46.508,63.562 45.952,62.750 45.414 C 60.933 44.212,59.038 44.025,52.000 44.356 M18.000 52.561 C 16.668 52.847,15.029 52.914,13.845 52.732 C 11.348 52.347,10.913 52.600,8.178 56.027 L 5.936 58.837 6.122 65.949 L 6.307 73.061 7.952 75.231 C 8.856 76.424,9.597 77.518,9.598 77.662 C 9.599 77.807,10.469 78.549,11.531 79.312 C 13.511 80.735,13.901 81.396,15.002 85.200 C 15.490 86.889,16.233 88.048,18.199 90.188 L 20.759 92.977 22.674 92.465 C 27.555 91.159,27.703 90.549,27.367 73.072 L 27.088 58.600 25.514 56.876 C 24.648 55.928,23.689 54.554,23.384 53.824 C 22.569 51.872,21.922 51.721,18.000 52.561 M22.281 53.824 C 22.677 54.387,23.652 55.702,24.449 56.747 L 25.898 58.647 26.153 68.224 C 26.293 73.491,26.517 79.851,26.650 82.357 C 27.001 88.960,25.981 91.064,22.047 91.851 C 20.301 92.200,16.026 87.155,15.031 83.570 C 14.436 81.426,13.985 80.690,12.309 79.130 C 11.205 78.102,9.604 76.212,8.752 74.930 L 7.203 72.600 7.204 65.800 C 7.205 58.366,7.091 58.801,9.967 55.276 L 11.334 53.600 14.567 53.560 C 16.345 53.538,18.250 53.376,18.800 53.200 C 20.641 52.610,21.543 52.772,22.281 53.824 M114.116 91.428 C 113.418 91.974,112.172 92.703,111.346 93.048 C 109.853 93.672,104.031 99.218,102.702 101.282 C 102.184 102.086,101.289 102.578,99.222 103.193 C 97.228 103.787,95.845 104.529,94.344 105.811 C 93.191 106.795,92.030 107.600,91.763 107.600 C 91.497 107.600,90.366 108.654,89.250 109.943 C 87.462 112.006,86.968 112.337,85.110 112.715 C 81.088 113.534,77.538 115.820,76.160 118.480 C 74.533 121.619,75.808 142.505,77.768 144.835 C 78.289 145.454,79.277 147.432,79.963 149.230 C 80.650 151.029,81.725 153.153,82.351 153.950 C 82.978 154.748,83.798 156.002,84.175 156.738 C 84.552 157.474,85.807 159.004,86.965 160.138 L 89.071 162.200 89.585 166.914 C 90.059 171.267,90.214 171.807,91.601 173.953 C 93.076 176.235,94.068 179.570,94.616 184.088 C 94.768 185.337,95.335 186.688,96.291 188.078 C 98.495 191.282,98.772 193.293,99.008 207.800 C 99.333 227.782,98.626 236.318,96.453 238.651 C 95.124 240.078,94.510 241.710,94.215 244.600 C 93.736 249.295,92.990 251.799,91.484 253.771 C 90.246 255.392,90.049 255.984,89.797 258.834 C 89.407 263.242,88.657 265.845,87.286 267.557 C 85.205 270.154,85.199 270.191,85.221 279.874 C 85.247 291.457,85.500 293.836,86.928 295.896 C 87.531 296.766,88.527 299.015,89.144 300.895 C 89.864 303.094,90.755 304.888,91.643 305.925 C 92.453 306.871,93.388 308.674,93.911 310.296 C 94.421 311.880,95.371 313.725,96.141 314.628 C 96.879 315.492,97.761 316.740,98.101 317.400 C 98.441 318.060,99.592 319.431,100.659 320.446 C 101.727 321.461,103.090 322.811,103.689 323.446 C 105.947 325.839,110.286 329.754,112.600 331.487 L 115.000 333.284 119.800 333.082 C 124.417 332.888,124.688 332.827,126.911 331.480 C 129.485 329.919,133.813 328.935,139.895 328.526 C 143.847 328.261,143.998 328.203,147.255 325.726 C 149.823 323.773,150.370 322.949,151.343 319.563 C 151.696 318.333,152.323 316.893,152.736 316.363 C 154.130 314.575,154.742 312.960,155.008 310.375 C 155.474 305.831,156.363 303.262,157.881 302.068 C 158.627 301.481,159.610 300.406,160.064 299.680 C 160.518 298.954,161.680 297.435,162.645 296.304 C 163.610 295.173,164.400 294.091,164.400 293.899 C 164.400 292.845,166.761 288.981,168.010 287.992 C 168.809 287.359,169.959 286.125,170.566 285.249 C 171.478 283.933,172.192 283.465,174.663 282.564 C 176.309 281.964,178.395 280.937,179.298 280.283 C 181.532 278.665,182.541 279.051,184.094 282.118 C 185.455 284.805,185.400 284.943,182.307 286.582 C 178.760 288.462,175.152 292.570,174.023 296.016 C 173.499 297.613,172.585 299.477,171.991 300.160 C 170.680 301.665,169.932 303.116,169.004 305.954 C 168.617 307.139,167.700 308.773,166.966 309.584 C 165.305 311.423,164.800 312.724,164.800 315.162 C 164.800 317.914,163.429 322.871,162.123 324.843 C 161.068 326.435,160.994 326.829,160.897 331.369 C 160.453 352.176,159.815 358.311,157.817 361.000 C 156.213 363.158,156.006 363.886,155.578 368.889 C 155.017 375.455,156.067 377.750,160.597 379.859 C 166.972 382.828,172.514 379.509,174.666 371.434 C 175.138 369.660,175.847 368.189,176.719 367.170 C 177.513 366.242,178.464 364.361,179.076 362.507 C 179.643 360.789,180.596 358.863,181.206 358.200 C 182.513 356.780,183.236 355.384,184.210 352.400 C 184.712 350.863,185.482 349.658,186.768 348.400 C 188.928 346.288,190.715 343.847,193.200 339.618 C 194.190 337.933,195.852 335.681,196.894 334.612 C 197.935 333.544,198.889 332.348,199.014 331.955 C 199.139 331.562,199.862 330.856,200.621 330.387 C 201.379 329.918,202.618 328.781,203.373 327.859 C 204.229 326.815,205.926 325.552,207.873 324.511 C 214.269 321.093,216.449 317.846,217.886 309.600 C 218.296 307.252,221.074 305.705,225.845 305.170 C 227.960 304.933,229.184 304.585,229.761 304.056 C 230.222 303.633,231.589 302.685,232.798 301.949 C 236.156 299.904,239.984 295.850,241.950 292.255 L 243.670 289.109 242.489 287.455 C 241.839 286.545,240.931 285.058,240.471 284.150 C 240.011 283.243,239.132 282.070,238.518 281.544 C 237.903 281.019,236.894 279.913,236.275 279.088 C 235.657 278.263,234.217 277.122,233.075 276.551 C 231.934 275.981,230.536 275.079,229.968 274.547 C 229.148 273.779,228.253 273.503,225.606 273.201 C 220.628 272.633,218.445 271.873,216.543 270.045 C 215.509 269.052,214.233 268.289,213.144 268.013 C 210.130 267.250,208.009 266.356,206.798 265.337 C 205.455 264.207,203.631 263.600,201.580 263.600 C 199.557 263.600,195.692 262.207,193.162 260.566 L 191.000 259.164 186.000 259.423 C 181.671 259.649,180.812 259.809,179.600 260.623 C 176.477 262.719,175.578 262.883,163.800 263.497 L 152.600 264.080 150.397 265.405 C 146.096 267.991,140.705 267.946,136.518 265.290 C 135.463 264.620,133.307 263.692,131.727 263.227 C 128.959 262.413,128.143 261.899,123.700 258.171 C 121.678 256.474,121.669 256.390,123.214 253.697 L 124.420 251.594 125.923 252.360 C 129.243 254.055,138.066 254.642,140.006 253.297 C 142.407 251.634,153.884 240.184,154.666 238.673 C 155.447 237.162,155.209 236.369,152.967 233.000 C 151.942 231.460,150.696 229.300,150.198 228.200 C 149.701 227.100,148.907 225.852,148.434 225.426 C 147.961 225.001,147.203 224.051,146.748 223.317 C 145.754 221.708,144.565 221.051,141.046 220.168 C 138.981 219.649,138.196 219.237,137.554 218.336 C 137.099 217.696,135.764 216.504,134.588 215.687 C 130.274 212.687,127.895 210.680,127.255 209.499 C 126.895 208.834,125.982 207.460,125.227 206.446 C 124.472 205.432,123.186 203.040,122.371 201.132 C 121.555 199.223,120.439 197.063,119.890 196.331 C 118.672 194.707,117.753 191.510,117.461 187.882 C 117.249 185.240,116.375 183.141,115.018 182.015 C 114.703 181.753,114.050 180.338,113.568 178.870 C 112.484 175.570,111.755 174.070,110.653 172.873 C 110.184 172.363,109.347 170.601,108.794 168.956 C 107.711 165.738,105.700 162.859,102.095 159.366 C 100.481 157.802,99.795 156.748,99.153 154.846 C 98.655 153.373,97.636 151.571,96.644 150.408 C 90.507 143.219,92.259 123.365,99.480 118.263 L 101.088 117.127 102.671 117.934 C 105.257 119.253,105.381 119.589,104.271 122.265 C 102.594 126.307,101.768 133.220,102.609 136.173 C 105.709 147.058,105.690 147.019,109.747 151.000 C 111.316 152.540,113.860 155.659,115.400 157.932 C 116.940 160.204,119.037 163.137,120.061 164.448 C 121.497 166.290,122.123 167.581,122.807 170.117 C 123.294 171.922,124.379 174.697,125.219 176.283 C 126.059 177.869,126.858 180.029,126.995 181.083 C 127.797 187.262,129.051 190.712,134.092 200.600 C 134.541 201.480,135.234 202.847,135.633 203.637 C 137.041 206.427,141.742 210.976,144.480 212.196 C 148.439 213.961,154.058 218.099,157.075 221.470 C 158.574 223.145,161.075 225.458,162.632 226.611 C 164.190 227.763,166.607 229.982,168.004 231.542 C 170.127 233.913,170.968 234.542,173.138 235.380 C 174.565 235.932,176.378 236.815,177.166 237.344 C 177.955 237.872,180.670 239.613,183.200 241.212 C 185.730 242.812,188.700 244.871,189.800 245.789 C 193.159 248.592,199.471 252.291,202.766 253.389 C 204.658 254.019,206.521 254.969,207.490 255.799 C 208.370 256.552,210.060 257.550,211.245 258.017 C 212.430 258.484,214.414 259.481,215.654 260.234 C 216.894 260.987,219.242 261.936,220.872 262.343 C 224.547 263.261,225.299 263.659,226.609 265.376 C 227.499 266.543,228.302 266.949,232.125 268.167 C 236.035 269.412,240.872 271.834,243.036 273.629 C 243.385 273.919,244.457 275.696,245.417 277.578 C 247.270 281.207,250.297 284.710,253.731 287.200 C 259.639 291.484,259.174 291.245,263.840 292.394 C 264.940 292.665,266.304 293.555,267.987 295.099 C 271.494 298.317,272.872 299.176,277.418 300.979 C 279.608 301.848,282.141 303.055,283.047 303.662 C 284.905 304.907,286.944 304.713,288.660 303.130 L 289.520 302.336 289.960 304.388 C 290.820 308.400,290.426 309.221,287.087 310.370 C 283.143 311.727,281.087 311.773,275.593 310.628 C 266.617 308.758,264.478 307.627,262.419 303.663 C 261.824 302.518,258.333 300.917,254.800 300.168 L 252.200 299.617 249.300 301.043 C 247.705 301.828,246.400 302.608,246.400 302.778 C 246.400 303.408,243.066 306.849,241.854 307.470 C 240.510 308.158,240.126 308.449,234.577 312.978 C 226.635 319.460,226.303 320.112,225.928 330.000 C 224.648 363.671,223.667 360.961,237.278 361.344 C 254.642 361.833,372.902 362.117,374.039 361.672 C 376.967 360.528,377.511 351.697,377.353 307.800 C 377.328 300.760,377.323 293.560,377.341 291.800 C 377.442 282.176,376.727 231.363,376.355 221.692 C 376.030 213.240,376.036 209.553,376.382 207.092 C 377.092 202.032,375.486 148.210,374.596 147.259 C 374.006 146.628,369.268 146.564,338.800 146.776 C 327.910 146.851,298.570 146.711,273.600 146.463 L 228.200 146.012 227.516 146.906 C 226.287 148.512,225.933 151.244,225.560 162.000 C 224.934 180.031,224.710 226.574,225.231 230.073 L 225.689 233.145 228.945 236.317 C 230.735 238.062,233.010 239.898,234.000 240.398 C 235.576 241.193,241.105 245.049,242.800 246.534 C 248.300 251.353,256.930 251.506,263.732 246.904 C 264.870 246.134,267.060 244.840,268.600 244.028 C 270.140 243.216,272.148 242.055,273.061 241.449 C 277.120 238.752,283.211 238.320,287.498 240.423 C 290.826 242.055,291.967 243.630,293.068 248.109 L 293.952 251.700 293.127 253.904 C 291.804 257.439,287.072 262.007,283.051 263.630 L 279.943 264.886 278.933 263.943 C 276.966 262.105,276.718 261.136,277.539 258.498 C 279.211 253.125,275.494 252.350,268.793 256.675 C 261.861 261.149,250.728 261.104,245.493 256.581 C 244.273 255.527,242.547 254.694,239.318 253.599 C 236.853 252.764,234.262 251.671,233.561 251.172 C 232.860 250.673,231.325 249.874,230.150 249.396 C 228.745 248.825,227.446 247.883,226.356 246.645 C 225.444 245.609,223.834 244.324,222.778 243.789 C 221.721 243.253,220.732 242.614,220.581 242.368 C 220.429 242.123,219.471 241.403,218.452 240.770 C 215.060 238.660,205.809 229.995,198.000 221.614 C 196.130 219.607,191.977 215.318,188.772 212.082 C 184.307 207.577,182.317 205.217,180.267 202.000 C 178.795 199.690,176.900 196.988,176.056 195.996 C 175.212 195.004,173.155 191.404,171.484 187.996 C 169.353 183.648,167.781 181.025,166.214 179.200 C 158.900 170.684,158.664 161.905,165.697 159.980 C 170.837 158.574,171.053 152.165,166.304 142.000 C 165.534 140.350,164.475 137.763,163.951 136.251 C 163.253 134.233,162.644 133.229,161.663 132.475 C 160.928 131.911,159.891 130.808,159.359 130.024 C 158.828 129.241,156.812 126.980,154.880 125.000 C 152.948 123.020,150.964 120.825,150.472 120.122 C 148.615 117.471,140.999 113.525,136.400 112.831 C 134.750 112.581,132.050 111.938,130.400 111.400 C 128.750 110.862,126.680 110.234,125.800 110.004 C 123.811 109.486,123.103 108.948,122.261 107.320 C 121.404 105.661,121.315 105.866,123.501 104.463 C 125.878 102.938,127.200 101.721,127.200 101.057 C 127.200 99.833,121.962 94.491,119.491 93.195 C 118.121 92.477,116.637 91.562,116.193 91.162 C 115.409 90.456,115.349 90.463,114.116 91.428 M118.236 93.430 C 121.222 94.866,121.829 95.375,124.793 98.924 C 126.835 101.370,126.858 101.266,123.900 103.048 C 119.164 105.902,115.690 108.848,112.505 112.714 C 111.025 114.511,107.712 115.765,103.200 116.235 C 96.600 116.924,91.511 125.028,92.169 133.800 C 93.038 145.377,93.639 147.992,96.023 150.579 C 96.949 151.583,97.945 153.315,98.540 154.953 C 99.301 157.049,100.010 158.136,101.662 159.736 C 105.222 163.183,107.251 166.056,108.092 168.842 C 108.517 170.249,109.361 172.030,109.968 172.800 C 111.439 174.669,111.914 175.608,112.996 178.787 C 113.498 180.266,114.533 182.291,115.294 183.289 C 116.524 184.900,116.705 185.455,116.910 188.251 C 117.171 191.811,118.284 195.370,119.738 197.297 C 120.279 198.014,121.257 199.988,121.912 201.684 C 122.566 203.380,123.584 205.341,124.173 206.041 C 124.762 206.741,125.682 208.178,126.218 209.235 C 126.753 210.292,127.656 211.481,128.224 211.878 C 128.791 212.275,130.261 213.455,131.490 214.500 C 132.719 215.545,133.878 216.400,134.066 216.400 C 134.253 216.400,135.449 217.358,136.722 218.528 C 138.683 220.331,139.419 220.737,141.547 221.189 C 143.698 221.645,144.239 221.948,145.328 223.307 C 146.028 224.180,147.114 225.457,147.741 226.147 C 148.369 226.836,149.246 228.120,149.690 229.000 C 150.133 229.880,151.093 231.336,151.822 232.235 C 152.551 233.135,153.550 234.698,154.041 235.709 L 154.934 237.548 153.859 238.958 C 151.958 241.450,141.887 251.293,139.600 252.895 C 137.723 254.209,129.712 253.570,126.409 251.843 L 124.433 250.810 123.456 252.105 C 120.773 255.661,120.961 257.155,124.409 259.653 C 125.386 260.360,126.638 261.363,127.192 261.883 C 127.746 262.402,129.460 263.207,131.000 263.672 C 132.540 264.136,135.082 265.190,136.649 266.013 C 141.396 268.507,146.491 268.495,150.547 265.982 C 152.635 264.687,158.204 264.053,168.000 263.994 C 173.050 263.963,176.734 263.210,179.137 261.715 C 180.938 260.596,181.468 260.481,186.044 260.222 L 191.000 259.942 192.849 261.175 C 195.072 262.658,198.376 263.840,201.958 264.437 C 203.747 264.734,205.266 265.309,206.663 266.218 C 207.797 266.955,209.863 267.854,211.254 268.214 C 214.388 269.026,215.043 269.357,216.800 271.018 C 218.247 272.385,220.334 273.091,225.600 273.995 C 227.030 274.241,228.656 274.769,229.212 275.168 C 229.769 275.567,231.029 276.292,232.012 276.778 C 234.124 277.823,238.935 282.723,240.084 285.000 C 240.528 285.880,241.317 287.168,241.837 287.862 L 242.782 289.124 241.172 292.262 C 239.461 295.596,235.552 299.766,232.800 301.194 C 232.030 301.594,230.727 302.457,229.904 303.113 C 228.719 304.058,227.847 304.365,225.704 304.591 C 220.831 305.104,217.758 306.791,217.392 309.155 C 216.198 316.887,213.493 321.013,207.683 323.966 C 203.908 325.884,195.327 334.789,192.451 339.772 C 190.554 343.060,188.682 345.626,186.104 348.471 C 184.513 350.227,183.848 351.359,183.345 353.166 C 182.913 354.722,182.096 356.264,180.988 357.615 C 179.809 359.052,179.029 360.569,178.427 362.596 C 177.951 364.199,177.191 365.846,176.738 366.255 C 175.642 367.247,174.547 369.452,173.960 371.846 C 173.072 375.472,170.898 378.449,168.008 379.996 C 164.892 381.663,157.774 378.706,156.277 375.123 C 155.303 372.791,156.274 364.165,157.725 362.263 C 160.263 358.935,160.724 355.933,161.143 339.994 L 161.485 327.000 162.727 325.046 C 164.031 322.995,164.976 319.364,165.405 314.762 C 165.618 312.470,165.853 311.879,167.195 310.256 C 168.044 309.228,169.042 307.535,169.413 306.493 C 169.783 305.452,170.276 304.087,170.508 303.460 C 170.740 302.833,171.516 301.619,172.232 300.762 C 172.948 299.905,173.936 297.988,174.429 296.502 C 175.509 293.240,179.276 288.870,182.542 287.089 C 186.066 285.168,186.229 284.881,185.181 282.445 C 183.530 278.607,181.645 277.690,179.277 279.574 C 178.464 280.220,176.540 281.216,175.000 281.787 C 171.391 283.126,165.679 288.727,164.505 292.076 C 164.117 293.184,162.945 295.070,161.900 296.268 C 160.855 297.466,160.000 298.600,160.000 298.788 C 160.000 298.975,159.118 300.000,158.040 301.064 C 155.771 303.306,154.853 305.580,154.514 309.800 C 154.289 312.602,153.738 314.165,152.342 315.955 C 151.933 316.481,151.244 318.058,150.811 319.460 C 149.596 323.393,149.931 322.993,144.439 327.075 C 144.087 327.336,141.190 327.821,138.000 328.154 C 132.047 328.774,127.276 329.944,126.401 330.998 C 125.709 331.832,123.626 332.287,119.144 332.581 L 115.288 332.834 113.420 331.217 C 112.392 330.328,111.383 329.600,111.177 329.600 C 110.697 329.600,98.800 317.825,98.800 317.350 C 98.800 317.155,98.025 316.050,97.078 314.895 C 95.954 313.525,95.039 311.811,94.443 309.960 C 93.869 308.177,93.017 306.557,92.148 305.596 C 91.188 304.532,90.406 302.951,89.579 300.401 C 88.925 298.384,87.946 296.152,87.404 295.440 C 86.191 293.851,85.603 288.390,85.613 278.800 C 85.620 271.552,85.886 270.091,87.540 268.207 C 89.098 266.433,89.999 263.499,90.289 259.253 C 90.499 256.199,90.643 255.744,91.943 254.053 C 93.583 251.919,94.783 247.840,94.793 244.359 C 94.799 242.393,95.013 241.794,96.545 239.462 C 99.304 235.261,99.389 234.488,99.395 213.600 C 99.400 193.966,99.173 191.174,97.370 188.689 C 95.700 186.389,95.316 185.440,95.066 183.000 C 94.671 179.136,93.674 175.946,92.174 173.752 C 90.909 171.902,90.712 171.226,90.130 166.752 L 89.485 161.800 87.600 159.997 C 86.563 159.005,85.338 157.454,84.877 156.550 C 84.415 155.646,83.590 154.375,83.043 153.724 C 82.496 153.074,81.486 151.115,80.798 149.371 C 80.111 147.627,79.124 145.549,78.604 144.754 C 76.565 141.631,75.843 136.096,76.221 126.471 L 76.512 119.046 78.344 117.088 C 80.517 114.764,81.424 114.254,84.959 113.366 C 87.256 112.789,87.865 112.432,89.315 110.815 C 90.242 109.780,91.720 108.511,92.600 107.994 C 93.480 107.476,94.778 106.558,95.485 105.952 C 96.192 105.346,97.812 104.530,99.085 104.139 C 101.330 103.450,106.704 98.777,108.800 95.692 C 109.247 95.033,114.113 92.215,115.131 92.025 C 115.203 92.011,116.600 92.644,118.236 93.430 M169.922 118.181 C 167.496 118.806,166.991 119.260,166.229 121.496 C 165.298 124.229,165.434 125.088,167.100 126.990 C 167.925 127.931,168.912 129.596,169.294 130.689 C 169.676 131.782,170.494 133.312,171.111 134.088 C 172.417 135.732,173.305 137.694,174.181 140.873 C 174.525 142.124,175.218 143.654,175.721 144.273 C 178.930 148.230,179.287 150.206,179.144 163.200 C 178.945 181.318,179.274 185.374,181.062 186.848 C 181.431 187.151,182.335 188.340,183.071 189.489 C 184.766 192.133,185.387 192.471,187.546 191.922 C 189.943 191.314,192.467 188.738,193.577 185.767 C 194.063 184.465,194.789 182.860,195.190 182.200 C 195.615 181.498,196.021 179.803,196.166 178.117 C 196.303 176.532,196.589 174.312,196.803 173.184 C 197.305 170.538,197.310 154.644,196.810 151.000 C 196.599 149.460,196.420 148.079,196.413 147.931 C 196.406 147.783,195.945 147.120,195.388 146.459 C 194.831 145.797,193.860 143.711,193.230 141.823 C 192.458 139.511,191.623 137.880,190.675 136.830 C 189.900 135.973,189.054 134.850,188.794 134.335 C 188.535 133.821,187.395 132.472,186.261 131.338 C 185.128 130.204,183.077 128.044,181.705 126.538 C 174.640 118.784,172.758 117.450,169.922 118.181 M174.424 120.214 C 177.217 122.542,177.675 122.987,180.800 126.416 C 182.230 127.985,184.525 130.415,185.900 131.816 C 187.275 133.217,188.400 134.556,188.400 134.791 C 188.400 135.026,189.094 135.979,189.943 136.909 C 191.034 138.104,191.805 139.564,192.571 141.885 C 193.168 143.692,194.120 145.852,194.687 146.685 C 196.810 149.801,197.485 166.881,195.808 175.000 C 195.490 176.540,195.217 178.520,195.202 179.400 C 195.187 180.280,194.916 181.341,194.600 181.758 C 194.285 182.176,193.642 183.673,193.172 185.085 C 191.496 190.121,186.976 193.058,184.848 190.495 C 179.678 184.268,179.042 180.847,179.884 163.800 C 180.403 153.299,179.760 149.064,177.000 144.800 C 176.216 143.590,175.236 141.520,174.821 140.200 C 173.780 136.891,173.021 135.188,172.017 133.912 C 171.546 133.313,170.632 131.657,169.985 130.231 C 169.339 128.805,168.245 126.996,167.555 126.210 C 165.014 123.315,167.408 118.492,171.424 118.416 C 171.877 118.407,173.227 119.216,174.424 120.214 M325.000 169.628 C 326.760 169.858,330.184 170.093,332.608 170.149 C 339.672 170.314,343.360 172.855,345.183 178.813 C 348.576 189.904,342.532 197.944,330.800 197.946 C 311.017 197.950,282.462 197.318,281.310 196.851 C 280.174 196.391,279.698 196.435,277.343 197.219 C 273.201 198.597,265.564 197.978,263.484 196.095 C 262.645 195.335,259.790 189.393,259.185 187.144 C 258.674 185.247,259.877 180.689,261.356 178.916 C 261.868 178.302,262.570 177.248,262.916 176.574 C 263.262 175.899,264.322 174.825,265.272 174.186 C 266.222 173.547,267.676 172.434,268.501 171.712 C 269.806 170.571,270.302 170.395,272.301 170.363 C 273.566 170.342,276.850 170.019,279.600 169.644 C 285.346 168.861,319.036 168.849,325.000 169.628 M296.600 174.860 C 293.960 175.066,290.202 175.147,288.249 175.040 C 285.046 174.864,284.515 174.941,282.826 175.824 C 281.628 176.451,279.739 176.948,277.577 177.207 C 271.328 177.953,268.414 178.879,267.615 180.373 C 263.718 187.654,269.187 194.481,278.891 194.448 C 299.866 194.379,330.439 193.657,331.983 193.195 C 335.845 192.038,339.070 187.299,338.211 184.042 C 337.020 179.527,334.559 177.601,329.201 176.993 C 327.771 176.831,325.161 176.239,323.401 175.677 C 319.752 174.512,306.310 174.102,296.600 174.860 M324.811 179.812 C 332.619 180.498,332.291 180.357,333.249 183.453 C 334.654 187.993,330.862 190.976,323.604 191.042 C 279.500 191.441,274.916 191.311,274.018 189.634 C 273.782 189.192,272.762 188.262,271.753 187.568 C 269.496 186.015,269.543 184.675,271.941 182.273 C 274.048 180.162,274.997 180.024,287.600 179.986 C 293.650 179.969,299.320 179.805,300.200 179.623 C 302.933 179.058,317.493 179.170,324.811 179.812 M337.207 207.068 C 337.829 207.435,338.561 208.154,338.835 208.665 C 339.792 210.454,340.956 210.880,343.587 210.402 C 346.190 209.930,347.491 210.117,349.600 211.265 C 352.010 212.578,354.993 211.881,356.733 209.599 C 358.790 206.902,359.267 206.671,362.150 206.980 L 364.641 207.247 367.620 210.503 L 370.599 213.760 370.716 218.180 C 370.851 223.294,370.557 224.136,368.216 225.346 C 366.169 226.405,356.309 227.070,352.600 226.399 C 348.779 225.708,346.405 226.350,343.727 228.797 C 341.187 231.119,341.074 231.148,340.119 229.740 C 339.723 229.157,338.862 228.145,338.205 227.490 L 337.010 226.301 329.805 226.559 C 324.359 226.754,321.975 226.682,320.041 226.264 C 318.330 225.894,317.003 225.826,316.041 226.059 C 313.418 226.692,290.587 227.283,287.404 226.801 C 284.845 226.413,278.179 226.317,267.000 226.508 C 265.020 226.542,262.770 226.524,262.000 226.467 C 261.230 226.411,257.000 226.496,252.600 226.657 C 241.017 227.081,241.092 227.084,239.846 226.267 C 236.812 224.279,234.731 215.796,236.584 212.968 C 238.171 210.546,244.596 209.894,255.645 211.036 C 256.880 211.163,258.583 211.077,259.429 210.843 C 262.268 210.059,273.404 211.399,274.441 212.650 C 275.021 213.348,275.600 213.358,275.600 212.669 C 275.600 211.855,277.994 208.422,279.039 207.738 C 279.931 207.153,280.050 207.216,282.146 209.362 L 284.326 211.595 286.263 211.297 C 288.275 210.988,293.648 210.928,297.800 211.166 C 303.314 211.484,312.510 211.194,314.720 210.633 C 316.175 210.263,318.774 210.073,321.902 210.106 L 326.804 210.158 328.302 208.731 C 330.918 206.238,334.629 205.545,337.207 207.068 M320.893 261.794 C 324.705 262.406,323.535 268.898,318.765 273.598 C 315.054 277.253,313.839 279.328,314.574 280.751 C 316.195 283.885,315.732 286.332,312.863 289.784 C 311.956 290.876,310.767 292.676,310.222 293.784 C 307.413 299.491,300.661 301.727,293.800 299.223 C 292.480 298.741,289.790 297.905,287.822 297.364 C 282.248 295.834,281.594 294.937,283.175 290.984 C 283.787 289.453,284.420 287.300,284.581 286.200 C 284.966 283.574,287.354 281.142,290.282 280.392 L 292.251 279.887 291.352 278.988 C 289.876 277.512,289.495 271.206,290.833 270.380 C 292.006 269.654,294.544 269.605,296.642 270.266 C 298.772 270.937,298.861 270.933,300.909 270.064 C 302.059 269.575,304.980 268.808,307.400 268.359 C 312.872 267.342,314.185 266.784,315.029 265.115 C 316.344 262.516,317.588 261.184,318.522 261.375 C 319.005 261.473,320.072 261.662,320.893 261.794 " stroke="none" fill="#bb9b63" fill-rule="evenodd"></path><path id="path2" d="M2.659 2.100 C 2.294 5.138,2.388 34.238,2.771 36.566 C 3.141 38.823,3.945 39.600,5.910 39.600 C 7.624 39.600,7.450 40.348,5.596 40.953 C 4.327 41.367,4.009 41.759,2.795 44.400 C 2.643 44.730,1.952 45.056,1.260 45.125 L 0.000 45.251 0.000 70.625 L 0.000 96.000 1.182 96.000 C 2.236 96.000,2.391 96.162,2.617 97.500 C 3.122 100.496,3.424 100.781,6.100 100.795 C 7.146 100.800,7.200 100.893,7.200 102.720 C 7.200 105.122,7.674 105.600,10.058 105.600 L 11.956 105.600 12.078 107.490 C 12.237 109.960,13.064 110.386,17.700 110.394 L 21.200 110.400 21.200 112.026 C 21.200 113.933,21.777 115.200,22.645 115.200 C 23.257 115.200,26.195 117.986,26.478 118.834 C 26.670 119.411,31.562 119.960,36.700 119.982 C 40.571 119.999,40.800 120.046,40.800 120.826 C 40.800 123.545,42.393 124.045,51.858 124.297 L 59.515 124.502 59.158 125.748 C 58.750 127.168,58.737 138.065,59.136 143.287 L 59.403 146.774 61.449 148.695 L 63.495 150.616 63.671 155.563 C 63.869 161.116,64.324 162.000,66.985 162.000 L 68.282 162.000 68.513 165.575 C 68.798 169.975,69.160 170.720,71.162 171.040 C 72.860 171.312,73.188 172.349,73.197 177.471 C 73.201 180.011,73.872 180.800,76.029 180.800 L 77.600 180.800 77.632 186.700 C 77.649 189.945,77.834 194.130,78.042 196.000 C 78.250 197.870,78.574 201.110,78.762 203.200 C 78.950 205.290,79.280 207.447,79.495 207.993 C 79.797 208.759,79.724 209.216,79.174 209.993 C 78.286 211.250,77.600 216.380,77.600 221.767 C 77.600 225.334,77.509 225.864,76.823 226.293 C 74.356 227.833,73.253 232.864,73.204 242.800 C 73.185 246.718,72.948 247.470,71.590 247.944 C 68.638 248.973,68.339 251.813,68.486 277.430 L 68.601 297.400 69.526 299.133 C 70.034 300.086,70.969 301.164,71.603 301.528 C 72.884 302.263,73.186 303.011,73.195 305.467 C 73.204 308.402,74.814 311.331,76.600 311.662 C 77.263 311.785,77.448 312.246,77.681 314.354 C 78.065 317.832,79.424 320.490,81.048 320.940 C 82.206 321.261,82.313 321.442,82.519 323.433 C 82.807 326.223,82.852 326.277,85.200 326.600 C 87.192 326.874,87.200 326.881,87.200 328.361 C 87.200 330.439,87.873 331.141,90.000 331.281 L 91.800 331.400 92.021 333.328 C 92.282 335.600,92.757 335.986,95.300 335.994 C 97.029 335.999,97.200 336.085,97.200 336.946 C 97.200 338.271,98.559 339.852,99.935 340.127 C 100.998 340.340,101.111 340.529,101.291 342.403 C 101.598 345.599,100.116 345.388,123.020 345.511 L 143.600 345.621 143.600 352.758 L 143.600 359.896 141.751 360.104 C 139.657 360.340,139.217 360.805,139.200 362.800 C 139.182 364.893,138.878 365.093,135.457 365.263 C 132.129 365.429,130.400 366.490,130.400 368.367 C 130.400 368.938,129.968 369.140,128.324 369.334 C 125.155 369.710,125.022 369.974,124.861 376.224 C 124.752 380.407,124.850 381.820,125.293 382.510 C 125.745 383.214,125.787 383.943,125.494 386.000 C 125.004 389.446,124.670 403.852,124.998 407.442 L 125.257 410.283 127.409 412.042 L 129.561 413.800 129.581 416.651 C 129.604 420.060,129.945 420.463,133.024 420.719 C 135.112 420.892,135.200 420.945,135.200 422.050 L 135.200 423.200 153.400 423.200 L 171.600 423.200 171.600 421.065 C 171.600 419.126,171.745 418.778,173.180 417.269 C 176.392 413.892,176.424 408.970,173.255 405.704 C 171.977 404.388,171.682 403.761,171.463 401.898 C 170.962 397.630,171.252 397.729,158.082 397.368 L 147.963 397.091 148.082 394.845 L 148.200 392.600 151.718 392.730 C 155.448 392.867,156.041 393.186,158.170 396.200 C 158.710 396.966,159.260 397.005,170.991 397.117 C 182.850 397.230,183.219 397.257,182.361 397.951 C 181.529 398.625,181.478 398.964,181.526 403.477 C 181.589 409.544,181.839 410.247,184.139 410.826 C 185.850 411.257,185.910 411.326,186.107 413.070 C 186.391 415.589,186.722 415.781,191.056 415.940 C 197.834 416.188,199.222 415.730,199.569 413.134 C 199.796 411.433,199.834 411.395,201.557 411.165 C 203.652 410.886,204.400 410.030,204.400 407.911 C 204.400 406.800,204.594 406.313,205.100 406.150 C 207.662 405.327,208.010 405.058,208.460 403.559 C 208.865 402.206,209.102 401.987,210.361 401.806 C 216.272 400.952,217.349 400.454,217.809 398.359 C 218.130 396.899,219.600 396.696,219.600 398.111 C 219.600 400.282,222.682 402.000,226.575 402.000 C 228.826 402.000,229.004 402.764,226.978 403.730 C 226.075 404.161,225.403 404.845,225.139 405.604 C 224.737 406.757,224.633 406.800,222.261 406.802 C 217.083 406.807,215.349 407.348,213.339 409.583 L 211.526 411.600 206.412 411.600 C 199.960 411.600,200.244 411.311,200.060 418.061 L 199.920 423.200 220.960 423.200 L 242.000 423.200 242.000 422.000 C 242.000 420.914,242.124 420.799,243.300 420.794 C 245.682 420.783,246.576 420.019,246.800 417.805 C 246.989 415.938,247.075 415.814,248.344 415.556 C 251.216 414.973,251.561 413.636,251.577 403.000 C 251.590 394.245,251.422 393.598,248.990 393.026 C 246.927 392.542,247.088 392.787,246.750 389.623 C 246.385 386.202,245.550 384.491,244.093 384.175 C 242.327 383.792,241.451 383.221,240.600 381.901 C 239.205 379.734,237.141 378.912,232.300 378.595 C 227.336 378.269,226.980 377.883,229.337 375.384 L 230.674 373.967 234.237 374.084 L 237.800 374.200 237.924 375.919 C 238.113 378.544,234.041 378.400,308.086 378.400 L 376.119 378.400 377.478 379.799 C 381.346 383.782,387.600 383.301,387.600 379.020 C 387.600 378.497,388.305 378.400,392.120 378.400 C 396.783 378.400,397.600 378.150,397.600 376.720 C 397.600 376.187,397.911 376.000,398.800 376.000 L 400.000 376.000 400.000 367.800 L 400.000 359.600 398.645 359.600 C 397.414 359.600,397.265 359.472,397.029 358.211 C 396.729 356.617,395.516 355.600,393.911 355.600 L 392.800 355.600 392.809 338.300 L 392.817 321.000 394.109 320.400 C 396.592 319.246,397.394 316.972,397.373 311.148 C 397.352 305.151,396.953 304.162,394.393 303.753 L 392.800 303.498 392.800 300.559 C 392.800 297.712,392.837 297.602,393.976 297.013 C 397.415 295.234,397.446 287.427,394.019 286.008 L 392.800 285.503 392.800 218.983 L 392.800 152.464 394.100 152.187 C 395.854 151.815,396.670 151.016,396.979 149.374 C 397.213 148.124,397.361 148.000,398.618 148.000 L 400.000 148.000 400.000 141.200 L 400.000 134.400 398.900 134.394 C 397.463 134.386,397.067 134.077,396.408 132.451 C 395.630 130.529,394.078 130.034,387.274 129.537 C 381.130 129.089,378.917 128.261,378.829 126.380 C 378.772 125.168,377.863 124.800,374.925 124.800 C 371.967 124.800,369.250 123.131,369.211 121.290 C 369.196 120.581,367.478 120.000,365.396 120.000 C 363.885 120.000,363.572 119.851,363.122 118.914 C 362.213 117.025,359.368 115.449,356.540 115.269 C 354.228 115.121,354.027 115.030,353.567 113.920 C 352.805 112.080,349.865 110.914,345.000 110.522 L 341.000 110.200 340.876 108.706 C 340.691 106.468,339.738 106.000,335.364 106.000 L 331.705 106.000 331.483 104.345 C 331.133 101.736,330.590 101.442,325.796 101.265 C 321.661 101.112,321.600 101.095,321.600 100.136 C 321.600 97.458,316.963 96.089,309.349 96.520 C 304.371 96.802,304.112 96.964,303.768 100.005 C 303.538 102.033,303.378 102.369,302.539 102.579 C 299.524 103.336,299.461 109.254,302.438 112.035 C 303.077 112.632,303.600 113.330,303.600 113.585 C 303.600 114.462,304.882 117.970,305.341 118.349 C 305.975 118.873,310.457 120.000,311.907 120.000 C 312.980 120.000,313.122 120.153,313.345 121.548 C 313.710 123.830,314.349 124.154,318.844 124.334 L 322.794 124.493 323.194 125.977 C 323.735 127.988,325.265 128.734,329.800 129.197 C 331.340 129.354,316.400 129.482,296.600 129.481 C 276.800 129.481,261.140 129.417,261.800 129.340 C 262.460 129.263,264.150 129.093,265.556 128.962 C 268.565 128.682,270.000 127.602,270.000 125.618 C 270.000 124.404,270.007 124.400,272.300 124.384 C 275.294 124.362,277.984 123.091,278.759 121.331 C 279.341 120.010,280.141 119.615,282.250 119.605 C 283.937 119.598,287.158 117.740,287.724 116.448 C 287.977 115.871,288.412 115.256,288.692 115.080 C 289.016 114.876,289.200 113.840,289.200 112.220 C 289.200 109.739,289.233 109.659,290.603 108.851 C 293.353 107.228,293.436 104.662,290.795 102.888 C 289.559 102.058,289.371 101.697,289.148 99.729 C 289.009 98.506,288.655 97.358,288.361 97.176 C 286.008 95.722,270.800 96.413,270.800 97.974 C 270.800 99.171,267.875 101.158,265.714 101.428 C 263.021 101.765,261.600 102.923,261.600 104.782 C 261.600 105.992,261.586 106.000,259.395 106.000 C 258.182 106.000,256.877 106.151,256.495 106.335 C 256.113 106.519,255.260 106.928,254.600 107.244 C 253.844 107.605,253.263 108.280,253.029 109.068 C 252.629 110.415,251.598 110.784,248.200 110.798 C 244.601 110.813,242.800 112.020,242.800 114.419 C 242.800 115.070,242.518 115.201,241.100 115.206 C 236.535 115.223,233.600 116.640,233.600 118.826 C 233.600 119.825,233.459 119.912,231.533 120.097 C 229.110 120.330,228.400 121.050,228.400 123.276 L 228.400 124.800 224.689 124.800 C 220.258 124.800,219.310 125.261,219.124 127.506 L 219.000 129.000 214.600 129.440 C 209.510 129.950,207.192 130.889,206.419 132.754 C 205.448 135.099,204.930 134.559,204.649 130.906 C 204.303 126.399,203.849 125.498,201.695 125.044 C 200.050 124.697,200.000 124.640,200.000 123.117 C 200.000 121.276,199.416 120.000,198.573 120.000 C 197.693 120.000,195.290 117.447,195.134 116.347 C 195.043 115.705,194.695 115.357,194.053 115.266 C 192.949 115.110,190.400 112.706,190.400 111.821 C 190.400 111.187,189.544 110.889,187.205 110.708 C 185.923 110.609,185.789 110.475,185.563 109.073 C 185.246 107.104,184.498 106.391,182.463 106.118 C 180.979 105.919,180.792 105.767,180.569 104.575 C 180.144 102.312,177.894 101.233,173.553 101.210 L 171.705 101.200 171.483 99.545 C 171.151 97.071,170.681 96.808,166.073 96.527 L 162.000 96.279 162.000 94.940 C 162.000 92.698,161.024 92.121,156.679 91.796 L 152.877 91.511 152.611 89.735 C 152.272 87.475,151.605 87.200,146.448 87.200 L 142.548 87.200 141.874 85.786 C 140.667 83.255,138.664 82.697,130.042 82.488 L 122.683 82.310 121.356 80.982 C 120.205 79.832,119.991 79.294,119.752 76.958 C 119.484 74.342,119.412 74.202,117.338 72.272 L 115.200 70.282 115.190 66.641 C 115.174 60.526,114.797 59.560,112.293 59.226 C 110.611 59.002,110.599 58.987,110.382 57.102 C 110.116 54.787,109.838 54.488,107.800 54.327 L 106.200 54.200 105.835 52.000 C 105.634 50.790,105.344 49.710,105.191 49.600 C 105.037 49.490,104.608 48.807,104.237 48.083 C 103.865 47.358,103.075 46.552,102.481 46.291 C 101.886 46.030,101.256 45.588,101.080 45.308 C 100.904 45.029,100.403 44.800,99.967 44.800 C 99.049 44.800,96.616 42.511,96.226 41.281 C 96.023 40.643,95.511 40.383,94.080 40.192 C 91.345 39.826,91.200 39.739,91.200 38.475 C 91.200 36.422,90.091 35.893,84.814 35.423 C 79.709 34.969,78.654 34.478,77.475 32.010 C 76.998 31.012,76.910 30.995,70.020 30.600 L 63.047 30.200 62.725 28.950 C 62.337 27.443,61.827 26.982,60.033 26.519 C 59.281 26.325,58.545 25.904,58.398 25.583 C 57.185 22.948,56.874 22.568,55.587 22.149 C 54.304 21.732,54.185 21.553,53.993 19.749 C 53.716 17.143,53.542 16.948,51.209 16.639 L 49.200 16.372 49.200 14.381 C 49.200 13.285,49.039 12.077,48.843 11.695 C 48.647 11.313,48.289 10.501,48.048 9.892 C 47.802 9.269,47.126 8.613,46.505 8.392 C 44.605 7.719,44.271 7.394,43.819 5.784 C 43.397 4.280,43.136 4.052,40.400 2.795 C 40.070 2.643,39.744 1.952,39.675 1.260 L 39.549 0.000 21.230 0.000 L 2.911 0.000 2.659 2.100 M22.830 6.639 C 23.364 7.210,24.477 8.025,25.305 8.450 C 26.133 8.874,28.325 10.791,30.176 12.711 C 32.027 14.630,34.428 17.100,35.511 18.200 C 36.593 19.300,37.958 21.010,38.544 22.000 C 39.129 22.990,39.983 24.271,40.442 24.847 C 43.743 28.988,42.877 36.511,38.861 38.589 C 37.837 39.119,35.872 40.778,34.493 42.276 C 26.435 51.032,25.799 51.464,24.157 49.300 C 23.531 48.475,22.359 47.080,21.554 46.200 C 20.327 44.860,19.979 44.056,19.408 41.249 C 18.334 35.966,17.708 34.253,16.394 32.994 C 15.552 32.188,14.912 30.939,14.352 29.010 C 13.147 24.864,12.774 23.966,11.520 22.182 C 9.575 19.416,9.851 12.580,12.003 10.211 C 12.608 9.545,13.776 8.235,14.598 7.300 L 16.093 5.600 18.977 5.600 C 21.566 5.600,21.960 5.706,22.830 6.639 M62.750 45.414 C 63.562 45.952,65.121 46.508,66.213 46.651 C 67.306 46.794,68.402 47.069,68.650 47.263 C 68.897 47.456,70.057 47.940,71.227 48.338 C 75.119 49.661,74.277 50.894,69.557 50.783 C 53.693 50.411,52.793 51.005,56.072 59.681 C 56.573 61.006,57.548 61.663,60.400 62.600 C 61.610 62.998,62.960 63.545,63.400 63.816 C 64.438 64.456,67.598 65.430,70.497 66.002 C 73.985 66.691,74.899 70.166,72.129 72.207 C 70.241 73.597,75.412 76.608,79.095 76.264 C 84.502 75.759,85.358 74.258,86.601 63.101 C 86.822 61.119,86.950 60.850,87.529 61.146 C 87.898 61.336,88.988 61.611,89.950 61.758 C 92.404 62.133,93.077 62.586,94.043 64.513 C 94.508 65.441,95.312 66.653,95.830 67.207 C 96.348 67.761,97.397 69.898,98.163 71.957 C 98.928 74.016,99.953 76.124,100.440 76.643 C 101.559 77.834,101.345 91.463,100.197 92.106 C 99.870 92.288,98.567 93.351,97.302 94.466 C 94.211 97.189,92.217 98.415,89.873 99.034 C 88.796 99.318,87.259 100.003,86.458 100.557 C 85.656 101.111,83.290 102.176,81.200 102.923 C 79.110 103.671,76.500 104.616,75.400 105.023 C 73.780 105.622,71.968 105.788,65.862 105.898 L 58.325 106.034 56.062 104.752 C 54.044 103.609,53.053 103.375,46.881 102.583 C 38.847 101.552,39.523 101.913,39.154 98.454 C 38.994 96.956,38.510 94.486,38.078 92.965 C 37.647 91.444,37.114 89.300,36.896 88.200 C 36.677 87.100,36.077 85.120,35.562 83.800 C 34.673 81.520,34.619 80.823,34.481 69.884 L 34.336 58.368 35.726 56.829 C 36.579 55.885,37.379 54.387,37.795 52.957 C 39.074 48.559,39.591 47.919,43.268 46.183 C 48.363 43.777,59.606 43.334,62.750 45.414 M22.182 52.249 C 22.538 52.385,23.079 53.094,23.384 53.824 C 23.689 54.554,24.648 55.928,25.514 56.876 L 27.088 58.600 27.367 73.072 C 27.703 90.549,27.555 91.159,22.674 92.465 L 20.759 92.977 18.199 90.188 C 16.233 88.048,15.490 86.889,15.002 85.200 C 13.901 81.396,13.511 80.735,11.531 79.312 C 10.469 78.549,9.599 77.807,9.598 77.662 C 9.597 77.518,8.856 76.424,7.952 75.231 L 6.307 73.061 6.122 65.949 L 5.936 58.837 8.178 56.027 C 10.913 52.600,11.348 52.347,13.845 52.732 C 15.029 52.914,16.668 52.847,18.000 52.561 C 20.710 51.981,21.357 51.932,22.182 52.249 M119.491 93.195 C 121.962 94.491,127.200 99.833,127.200 101.057 C 127.200 101.721,125.878 102.938,123.501 104.463 C 121.315 105.866,121.404 105.661,122.261 107.320 C 123.103 108.948,123.811 109.486,125.800 110.004 C 126.680 110.234,128.750 110.862,130.400 111.400 C 132.050 111.938,134.750 112.581,136.400 112.831 C 140.999 113.525,148.615 117.471,150.472 120.122 C 150.964 120.825,152.948 123.020,154.880 125.000 C 156.812 126.980,158.828 129.241,159.359 130.024 C 159.891 130.808,160.928 131.911,161.663 132.475 C 162.644 133.229,163.253 134.233,163.951 136.251 C 164.475 137.763,165.534 140.350,166.304 142.000 C 171.053 152.165,170.837 158.574,165.697 159.980 C 158.664 161.905,158.900 170.684,166.214 179.200 C 167.781 181.025,169.353 183.648,171.484 187.996 C 173.155 191.404,175.212 195.004,176.056 195.996 C 176.900 196.988,178.795 199.690,180.267 202.000 C 182.317 205.217,184.307 207.577,188.772 212.082 C 191.977 215.318,196.130 219.607,198.000 221.614 C 205.809 229.995,215.060 238.660,218.452 240.770 C 219.471 241.403,220.429 242.123,220.581 242.368 C 220.732 242.614,221.721 243.253,222.778 243.789 C 223.834 244.324,225.444 245.609,226.356 246.645 C 227.446 247.883,228.745 248.825,230.150 249.396 C 231.325 249.874,232.860 250.673,233.561 251.172 C 234.262 251.671,236.853 252.764,239.318 253.599 C 242.547 254.694,244.273 255.527,245.493 256.581 C 250.728 261.104,261.861 261.149,268.793 256.675 C 275.494 252.350,279.211 253.125,277.539 258.498 C 276.718 261.136,276.966 262.105,278.933 263.943 L 279.943 264.886 283.051 263.630 C 287.072 262.007,291.804 257.439,293.127 253.904 L 293.952 251.700 293.068 248.109 C 291.967 243.630,290.826 242.055,287.498 240.423 C 283.211 238.320,277.120 238.752,273.061 241.449 C 272.148 242.055,270.140 243.216,268.600 244.028 C 267.060 244.840,264.870 246.134,263.732 246.904 C 256.930 251.506,248.300 251.353,242.800 246.534 C 241.105 245.049,235.576 241.193,234.000 240.398 C 233.010 239.898,230.735 238.062,228.945 236.317 L 225.689 233.145 225.231 230.073 C 224.710 226.574,224.934 180.031,225.560 162.000 C 225.933 151.244,226.287 148.512,227.516 146.906 L 228.200 146.012 273.600 146.463 C 298.570 146.711,327.910 146.851,338.800 146.776 C 369.268 146.564,374.006 146.628,374.596 147.259 C 375.486 148.210,377.092 202.032,376.382 207.092 C 376.036 209.553,376.030 213.240,376.355 221.692 C 376.727 231.363,377.442 282.176,377.341 291.800 C 377.323 293.560,377.328 300.760,377.353 307.800 C 377.511 351.697,376.967 360.528,374.039 361.672 C 372.902 362.117,254.642 361.833,237.278 361.344 C 225.806 361.022,226.395 361.297,225.590 355.884 C 225.099 352.590,225.115 351.385,225.928 330.000 C 226.303 320.112,226.635 319.460,234.577 312.978 C 240.126 308.449,240.510 308.158,241.854 307.470 C 243.066 306.849,246.400 303.408,246.400 302.778 C 246.400 302.608,247.705 301.828,249.300 301.043 L 252.200 299.617 254.800 300.168 C 258.333 300.917,261.824 302.518,262.419 303.663 C 264.478 307.627,266.617 308.758,275.593 310.628 C 281.087 311.773,283.143 311.727,287.087 310.370 C 290.426 309.221,290.820 308.400,289.960 304.388 L 289.520 302.336 288.660 303.130 C 286.944 304.713,284.905 304.907,283.047 303.662 C 282.141 303.055,279.608 301.848,277.418 300.979 C 272.872 299.176,271.494 298.317,267.987 295.099 C 266.304 293.555,264.940 292.665,263.840 292.394 C 260.022 291.454,259.186 291.126,257.469 289.895 C 252.522 286.350,251.632 285.626,249.482 283.400 C 248.026 281.892,246.515 279.728,245.417 277.578 C 244.457 275.696,243.385 273.919,243.036 273.629 C 240.872 271.834,236.035 269.412,232.125 268.167 C 228.302 266.949,227.499 266.543,226.609 265.376 C 225.299 263.659,224.547 263.261,220.872 262.343 C 219.242 261.936,216.894 260.987,215.654 260.234 C 214.414 259.481,212.430 258.484,211.245 258.017 C 210.060 257.550,208.370 256.552,207.490 255.799 C 206.521 254.969,204.658 254.019,202.766 253.389 C 199.471 252.291,193.159 248.592,189.800 245.789 C 188.700 244.871,185.730 242.812,183.200 241.212 C 180.670 239.613,177.955 237.872,177.166 237.344 C 176.378 236.815,174.565 235.932,173.138 235.380 C 170.968 234.542,170.127 233.913,168.004 231.542 C 166.607 229.982,164.190 227.763,162.632 226.611 C 161.075 225.458,158.574 223.145,157.075 221.470 C 154.058 218.099,148.439 213.961,144.480 212.196 C 141.742 210.976,137.041 206.427,135.633 203.637 C 135.234 202.847,134.541 201.480,134.092 200.600 C 129.051 190.712,127.797 187.262,126.995 181.083 C 126.858 180.029,126.059 177.869,125.219 176.283 C 124.379 174.697,123.294 171.922,122.807 170.117 C 122.123 167.581,121.497 166.290,120.061 164.448 C 119.037 163.137,116.940 160.204,115.400 157.932 C 113.860 155.659,111.316 152.540,109.747 151.000 C 105.690 147.019,105.709 147.058,102.609 136.173 C 101.768 133.220,102.594 126.307,104.271 122.265 C 105.381 119.589,105.257 119.253,102.671 117.934 L 101.088 117.127 99.480 118.263 C 92.259 123.365,90.507 143.219,96.644 150.408 C 97.636 151.571,98.655 153.373,99.153 154.846 C 99.795 156.748,100.481 157.802,102.095 159.366 C 105.700 162.859,107.711 165.738,108.794 168.956 C 109.347 170.601,110.184 172.363,110.653 172.873 C 111.755 174.070,112.484 175.570,113.568 178.870 C 114.050 180.338,114.703 181.753,115.018 182.015 C 116.375 183.141,117.249 185.240,117.461 187.882 C 117.753 191.510,118.672 194.707,119.890 196.331 C 120.439 197.063,121.555 199.223,122.371 201.132 C 123.186 203.040,124.472 205.432,125.227 206.446 C 125.982 207.460,126.895 208.834,127.255 209.499 C 127.895 210.680,130.274 212.687,134.588 215.687 C 135.764 216.504,137.099 217.696,137.554 218.336 C 138.196 219.237,138.981 219.649,141.046 220.168 C 144.565 221.051,145.754 221.708,146.748 223.317 C 147.203 224.051,147.961 225.001,148.434 225.426 C 148.907 225.852,149.701 227.100,150.198 228.200 C 150.696 229.300,151.942 231.460,152.967 233.000 C 155.209 236.369,155.447 237.162,154.666 238.673 C 153.884 240.184,142.407 251.634,140.006 253.297 C 138.066 254.642,129.243 254.055,125.923 252.360 L 124.420 251.594 123.214 253.697 C 121.669 256.390,121.678 256.474,123.700 258.171 C 128.143 261.899,128.959 262.413,131.727 263.227 C 133.307 263.692,135.463 264.620,136.518 265.290 C 140.705 267.946,146.096 267.991,150.397 265.405 L 152.600 264.080 163.800 263.497 C 175.578 262.883,176.477 262.719,179.600 260.623 C 180.812 259.809,181.671 259.649,186.000 259.423 L 191.000 259.164 193.162 260.566 C 195.692 262.207,199.557 263.600,201.580 263.600 C 203.631 263.600,205.455 264.207,206.798 265.337 C 208.009 266.356,210.130 267.250,213.144 268.013 C 214.233 268.289,215.509 269.052,216.543 270.045 C 218.445 271.873,220.628 272.633,225.606 273.201 C 228.253 273.503,229.148 273.779,229.968 274.547 C 230.536 275.079,231.934 275.981,233.075 276.551 C 234.217 277.122,235.657 278.263,236.275 279.088 C 236.894 279.913,237.903 281.019,238.518 281.544 C 239.132 282.070,240.011 283.243,240.471 284.150 C 240.931 285.058,241.839 286.545,242.489 287.455 L 243.670 289.109 241.950 292.255 C 239.984 295.850,236.156 299.904,232.798 301.949 C 231.589 302.685,230.222 303.633,229.761 304.056 C 229.184 304.585,227.960 304.933,225.845 305.170 C 221.074 305.705,218.296 307.252,217.886 309.600 C 216.449 317.846,214.269 321.093,207.873 324.511 C 205.926 325.552,204.229 326.815,203.373 327.859 C 202.618 328.781,201.379 329.918,200.621 330.387 C 199.862 330.856,199.139 331.562,199.014 331.955 C 198.889 332.348,197.935 333.544,196.894 334.612 C 195.852 335.681,194.190 337.933,193.200 339.618 C 190.715 343.847,188.928 346.288,186.768 348.400 C 185.482 349.658,184.712 350.863,184.210 352.400 C 183.236 355.384,182.513 356.780,181.206 358.200 C 180.596 358.863,179.643 360.789,179.076 362.507 C 178.464 364.361,177.513 366.242,176.719 367.170 C 175.847 368.189,175.138 369.660,174.666 371.434 C 172.514 379.509,166.972 382.828,160.597 379.859 C 156.067 377.750,155.017 375.455,155.578 368.889 C 156.006 363.886,156.213 363.158,157.817 361.000 C 159.815 358.311,160.453 352.176,160.897 331.369 C 160.994 326.829,161.068 326.435,162.123 324.843 C 163.429 322.871,164.800 317.914,164.800 315.162 C 164.800 312.724,165.305 311.423,166.966 309.584 C 167.700 308.773,168.617 307.139,169.004 305.954 C 169.932 303.116,170.680 301.665,171.991 300.160 C 172.585 299.477,173.499 297.613,174.023 296.016 C 175.152 292.570,178.760 288.462,182.307 286.582 C 185.400 284.943,185.455 284.805,184.094 282.118 C 182.541 279.051,181.532 278.665,179.298 280.283 C 178.395 280.937,176.309 281.964,174.663 282.564 C 172.192 283.465,171.478 283.933,170.566 285.249 C 169.959 286.125,168.809 287.359,168.010 287.992 C 166.761 288.981,164.400 292.845,164.400 293.899 C 164.400 294.091,163.610 295.173,162.645 296.304 C 161.680 297.435,160.518 298.954,160.064 299.680 C 159.610 300.406,158.627 301.481,157.881 302.068 C 156.363 303.262,155.474 305.831,155.008 310.375 C 154.742 312.960,154.130 314.575,152.736 316.363 C 152.323 316.893,151.696 318.333,151.343 319.563 C 150.370 322.949,149.823 323.773,147.255 325.726 C 143.998 328.203,143.847 328.261,139.895 328.526 C 133.813 328.935,129.485 329.919,126.911 331.480 C 124.688 332.827,124.417 332.888,119.800 333.082 L 115.000 333.284 112.600 331.487 C 110.286 329.754,105.947 325.839,103.689 323.446 C 103.090 322.811,101.727 321.461,100.659 320.446 C 99.592 319.431,98.441 318.060,98.101 317.400 C 97.761 316.740,96.879 315.492,96.141 314.628 C 95.371 313.725,94.421 311.880,93.911 310.296 C 93.388 308.674,92.453 306.871,91.643 305.925 C 90.755 304.888,89.864 303.094,89.144 300.895 C 88.527 299.015,87.531 296.766,86.928 295.896 C 85.500 293.836,85.247 291.457,85.221 279.874 C 85.199 270.191,85.205 270.154,87.286 267.557 C 88.657 265.845,89.407 263.242,89.797 258.834 C 90.049 255.984,90.246 255.392,91.484 253.771 C 92.990 251.799,93.736 249.295,94.215 244.600 C 94.510 241.710,95.124 240.078,96.453 238.651 C 98.626 236.318,99.333 227.782,99.008 207.800 C 98.772 193.293,98.495 191.282,96.291 188.078 C 95.335 186.688,94.768 185.337,94.616 184.088 C 94.068 179.570,93.076 176.235,91.601 173.953 C 90.214 171.807,90.059 171.267,89.585 166.914 L 89.071 162.200 86.965 160.138 C 85.807 159.004,84.552 157.474,84.175 156.738 C 83.798 156.002,82.978 154.748,82.351 153.950 C 81.725 153.153,80.650 151.029,79.963 149.230 C 79.277 147.432,78.289 145.454,77.768 144.835 C 75.808 142.505,74.533 121.619,76.160 118.480 C 77.538 115.820,81.088 113.534,85.110 112.715 C 86.968 112.337,87.462 112.006,89.250 109.943 C 90.366 108.654,91.497 107.600,91.763 107.600 C 92.030 107.600,93.191 106.795,94.344 105.811 C 95.845 104.529,97.228 103.787,99.222 103.193 C 101.289 102.578,102.184 102.086,102.702 101.282 C 104.031 99.218,109.853 93.672,111.346 93.048 C 112.172 92.703,113.418 91.974,114.116 91.428 C 115.349 90.463,115.409 90.456,116.193 91.162 C 116.637 91.562,118.121 92.477,119.491 93.195 M175.200 120.042 C 177.363 121.878,178.433 122.947,181.705 126.538 C 183.077 128.044,185.128 130.204,186.261 131.338 C 187.395 132.472,188.535 133.821,188.794 134.335 C 189.054 134.850,189.900 135.973,190.675 136.830 C 191.623 137.880,192.458 139.511,193.230 141.823 C 193.860 143.711,194.831 145.797,195.388 146.459 C 195.945 147.120,196.406 147.783,196.413 147.931 C 196.420 148.079,196.599 149.460,196.810 151.000 C 197.310 154.644,197.305 170.538,196.803 173.184 C 196.589 174.312,196.303 176.532,196.166 178.117 C 196.021 179.803,195.615 181.498,195.190 182.200 C 194.789 182.860,194.063 184.465,193.577 185.767 C 192.467 188.738,189.943 191.314,187.546 191.922 C 185.387 192.471,184.766 192.133,183.071 189.489 C 182.335 188.340,181.431 187.151,181.062 186.848 C 179.274 185.374,178.945 181.318,179.144 163.200 C 179.287 150.206,178.930 148.230,175.721 144.273 C 175.218 143.654,174.525 142.124,174.181 140.873 C 173.305 137.694,172.417 135.732,171.111 134.088 C 170.494 133.312,169.676 131.782,169.294 130.689 C 168.912 129.596,167.925 127.931,167.100 126.990 C 165.434 125.088,165.298 124.229,166.229 121.496 C 167.655 117.313,171.291 116.723,175.200 120.042 M279.600 169.644 C 276.850 170.019,273.566 170.342,272.301 170.363 C 270.302 170.395,269.806 170.571,268.501 171.712 C 267.676 172.434,266.222 173.547,265.272 174.186 C 264.322 174.825,263.262 175.899,262.916 176.574 C 262.570 177.248,261.868 178.302,261.356 178.916 C 259.877 180.689,258.674 185.247,259.185 187.144 C 259.790 189.393,262.645 195.335,263.484 196.095 C 265.564 197.978,273.201 198.597,277.343 197.219 C 279.698 196.435,280.174 196.391,281.310 196.851 C 282.285 197.247,287.963 197.444,304.600 197.661 C 340.099 198.123,336.877 198.395,341.385 194.549 C 345.174 191.316,345.579 190.514,345.866 185.686 C 346.461 175.671,341.934 170.367,332.608 170.149 C 330.184 170.093,326.760 169.858,325.000 169.628 C 319.036 168.849,285.346 168.861,279.600 169.644 M323.401 175.677 C 325.161 176.239,327.771 176.831,329.201 176.993 C 334.559 177.601,337.020 179.527,338.211 184.042 C 339.070 187.299,335.845 192.038,331.983 193.195 C 330.439 193.657,299.866 194.379,278.891 194.448 C 269.187 194.481,263.718 187.654,267.615 180.373 C 268.414 178.879,271.328 177.953,277.577 177.207 C 279.739 176.948,281.628 176.451,282.826 175.824 C 284.515 174.941,285.046 174.864,288.249 175.040 C 290.202 175.147,293.960 175.066,296.600 174.860 C 306.310 174.102,319.752 174.512,323.401 175.677 M316.669 262.498 C 316.133 263.214,315.395 264.392,315.029 265.115 C 314.185 266.784,312.872 267.342,307.400 268.359 C 304.980 268.808,302.059 269.575,300.909 270.064 C 298.861 270.933,298.772 270.937,296.642 270.266 C 294.544 269.605,292.006 269.654,290.833 270.380 C 289.495 271.206,289.876 277.512,291.352 278.988 L 292.251 279.887 290.282 280.392 C 287.354 281.142,284.966 283.574,284.581 286.200 C 284.420 287.300,283.787 289.453,283.175 290.984 C 281.594 294.937,282.248 295.834,287.822 297.364 C 289.790 297.905,292.480 298.741,293.800 299.223 C 300.661 301.727,307.413 299.491,310.222 293.784 C 310.767 292.676,311.956 290.876,312.863 289.784 C 315.732 286.332,316.195 283.885,314.574 280.751 C 313.839 279.328,315.054 277.253,318.765 273.598 C 323.535 268.898,324.705 262.406,320.893 261.794 C 320.072 261.662,319.005 261.473,318.522 261.375 C 317.880 261.244,317.382 261.546,316.669 262.498 M200.996 372.245 C 201.651 373.250,203.151 373.600,206.814 373.600 L 209.529 373.600 209.664 376.001 L 209.800 378.401 206.400 378.429 C 197.374 378.503,195.600 379.060,195.600 381.822 C 195.600 383.029,195.509 383.104,193.740 383.346 C 191.296 383.681,190.800 384.160,190.800 386.182 L 190.800 387.866 188.909 388.233 C 187.498 388.507,186.890 388.854,186.515 389.600 C 186.078 390.468,186.011 390.058,186.006 386.500 C 186.000 382.482,186.019 382.400,186.924 382.400 C 188.635 382.400,190.400 379.728,190.400 377.137 C 190.400 376.366,192.742 374.022,194.001 373.534 C 194.715 373.257,195.200 371.600,195.200 369.441 C 195.200 368.421,195.457 368.044,196.553 367.453 C 197.297 367.053,198.106 366.285,198.351 365.747 C 199.494 363.240,199.787 363.538,200.124 367.544 C 200.302 369.665,200.694 371.780,200.996 372.245 M185.883 393.695 C 185.787 394.193,185.705 393.880,185.701 393.000 C 185.696 392.120,185.775 391.713,185.875 392.095 C 185.975 392.478,185.979 393.198,185.883 393.695 " stroke="none" fill="#f4f0eb" fill-rule="evenodd"></path><path id="path3" d="M113.493 110.135 C 112.562 111.089,110.765 112.546,109.499 113.374 C 106.772 115.158,106.289 115.742,107.866 115.351 C 110.154 114.782,111.517 114.002,112.645 112.615 C 113.280 111.834,114.314 110.566,114.941 109.798 C 116.558 107.818,115.518 108.060,113.493 110.135 M300.200 179.623 C 299.320 179.805,293.650 179.969,287.600 179.986 C 274.997 180.024,274.048 180.162,271.941 182.273 C 269.543 184.675,269.496 186.015,271.753 187.568 C 272.762 188.262,273.782 189.192,274.018 189.634 C 274.916 191.311,279.500 191.441,323.604 191.042 C 328.767 190.995,331.004 190.052,333.033 187.065 C 333.966 185.693,333.469 182.109,332.167 180.807 C 331.034 179.674,304.672 178.698,300.200 179.623 M330.600 206.864 C 330.160 207.106,329.126 207.946,328.302 208.731 L 326.804 210.158 321.902 210.106 C 318.774 210.073,316.175 210.263,314.720 210.633 C 312.510 211.194,303.314 211.484,297.800 211.166 C 293.648 210.928,288.275 210.988,286.263 211.297 L 284.326 211.595 282.146 209.362 C 280.050 207.216,279.931 207.153,279.039 207.738 C 277.994 208.422,275.600 211.855,275.600 212.669 C 275.600 213.358,275.021 213.348,274.441 212.650 C 273.404 211.399,262.268 210.059,259.429 210.843 C 258.583 211.077,256.880 211.163,255.645 211.036 C 244.596 209.894,238.171 210.546,236.584 212.968 C 234.731 215.796,236.812 224.279,239.846 226.267 C 241.092 227.084,241.017 227.081,252.600 226.657 C 257.000 226.496,261.230 226.411,262.000 226.467 C 262.770 226.524,265.020 226.542,267.000 226.508 C 278.179 226.317,284.845 226.413,287.404 226.801 C 290.587 227.283,313.418 226.692,316.041 226.059 C 317.003 225.826,318.330 225.894,320.041 226.264 C 321.975 226.682,324.359 226.754,329.805 226.559 L 337.010 226.301 338.205 227.490 C 338.862 228.145,339.723 229.157,340.119 229.740 C 341.074 231.148,341.187 231.119,343.727 228.797 C 346.405 226.350,348.779 225.708,352.600 226.399 C 356.309 227.070,366.169 226.405,368.216 225.346 C 370.557 224.136,370.851 223.294,370.716 218.180 L 370.599 213.760 367.620 210.503 L 364.641 207.247 362.150 206.980 C 359.267 206.671,358.790 206.902,356.733 209.599 C 354.993 211.881,352.010 212.578,349.600 211.265 C 347.491 210.117,346.190 209.930,343.587 210.402 C 340.956 210.880,339.792 210.454,338.835 208.665 C 337.751 206.639,332.928 205.584,330.600 206.864 " stroke="none" fill="#7a5e38" fill-rule="evenodd"></path></g></svg>